<?xml version="1.0" encoding="UTF-8"?><svg xmlns="http://www.w3.org/2000/svg" xmlns:xlink="http://www.w3.org/1999/xlink" fill-opacity="1" color-rendering="auto" color-interpolation="auto" text-rendering="auto" stroke="black" stroke-linecap="square" width="854" stroke-miterlimit="10" shape-rendering="auto" stroke-opacity="1" fill="black" stroke-dasharray="none" font-weight="normal" stroke-width="1" height="935" font-family="'Dialog'" font-style="normal" stroke-linejoin="miter" font-size="12px" stroke-dashoffset="0" image-rendering="auto">
  <!--Generated by ySVG 2.6-->
  <defs id="genericDefs"/>
  <g>
    <defs id="defs1">
      <linearGradient x1="303.2043" gradientUnits="userSpaceOnUse" x2="383.2043" y1="-100.75" y2="-60.75" id="linearGradient1" spreadMethod="reflect">
        <stop stop-opacity="1" stop-color="white" offset="0%"/>
        <stop stop-opacity="1" stop-color="white" offset="100%"/>
      </linearGradient>
      <linearGradient x1="582" gradientUnits="userSpaceOnUse" x2="662" y1="-100.75" y2="-60.75" id="linearGradient2" spreadMethod="reflect">
        <stop stop-opacity="1" stop-color="white" offset="0%"/>
        <stop stop-opacity="1" stop-color="white" offset="100%"/>
      </linearGradient>
      <linearGradient x1="1001.5" gradientUnits="userSpaceOnUse" x2="1081.5" y1="-100.75" y2="-60.75" id="linearGradient3" spreadMethod="reflect">
        <stop stop-opacity="1" stop-color="white" offset="0%"/>
        <stop stop-opacity="1" stop-color="white" offset="100%"/>
      </linearGradient>
      <linearGradient x1="537" gradientUnits="userSpaceOnUse" x2="707" y1="-38.875" y2="53.125" id="linearGradient4" spreadMethod="reflect">
        <stop stop-opacity="1" stop-color="white" offset="0%"/>
        <stop stop-opacity="1" stop-color="white" offset="100%"/>
      </linearGradient>
      <linearGradient x1="956.5" gradientUnits="userSpaceOnUse" x2="1126.5" y1="75" y2="176" id="linearGradient5" spreadMethod="reflect">
        <stop stop-opacity="1" stop-color="white" offset="0%"/>
        <stop stop-opacity="1" stop-color="white" offset="100%"/>
      </linearGradient>
      <linearGradient x1="956.5" gradientUnits="userSpaceOnUse" x2="1126.5" y1="439.375" y2="540.375" id="linearGradient6" spreadMethod="reflect">
        <stop stop-opacity="1" stop-color="white" offset="0%"/>
        <stop stop-opacity="1" stop-color="white" offset="100%"/>
      </linearGradient>
      <linearGradient x1="537" gradientUnits="userSpaceOnUse" x2="707" y1="83.125" y2="175.125" id="linearGradient7" spreadMethod="reflect">
        <stop stop-opacity="1" stop-color="white" offset="0%"/>
        <stop stop-opacity="1" stop-color="white" offset="100%"/>
      </linearGradient>
      <linearGradient x1="634.0958" gradientUnits="userSpaceOnUse" x2="804.0958" y1="595.375" y2="696.375" id="linearGradient8" spreadMethod="reflect">
        <stop stop-opacity="1" stop-color="white" offset="0%"/>
        <stop stop-opacity="1" stop-color="white" offset="100%"/>
      </linearGradient>
      <linearGradient x1="634.0958" gradientUnits="userSpaceOnUse" x2="804.0958" y1="726.375" y2="803.875" id="linearGradient9" spreadMethod="reflect">
        <stop stop-opacity="1" stop-color="white" offset="0%"/>
        <stop stop-opacity="1" stop-color="white" offset="100%"/>
      </linearGradient>
      <linearGradient x1="956.5" gradientUnits="userSpaceOnUse" x2="1126.5" y1="-38.875" y2="53.125" id="linearGradient10" spreadMethod="reflect">
        <stop stop-opacity="1" stop-color="white" offset="0%"/>
        <stop stop-opacity="1" stop-color="white" offset="100%"/>
      </linearGradient>
      <linearGradient x1="956.5" gradientUnits="userSpaceOnUse" x2="1126.5" y1="197.875" y2="289.875" id="linearGradient11" spreadMethod="reflect">
        <stop stop-opacity="1" stop-color="white" offset="0%"/>
        <stop stop-opacity="1" stop-color="white" offset="100%"/>
      </linearGradient>
      <linearGradient x1="956.5" gradientUnits="userSpaceOnUse" x2="1126.5" y1="319.875" y2="411.875" id="linearGradient12" spreadMethod="reflect">
        <stop stop-opacity="1" stop-color="white" offset="0%"/>
        <stop stop-opacity="1" stop-color="white" offset="100%"/>
      </linearGradient>
      <clipPath clipPathUnits="userSpaceOnUse" id="clipPath1">
        <path d="M0 0 L854 0 L854 935 L0 935 L0 0 Z"/>
      </clipPath>
      <clipPath clipPathUnits="userSpaceOnUse" id="clipPath2">
        <path d="M288 -116 L1142 -116 L1142 819 L288 819 L288 -116 Z"/>
      </clipPath>
    </defs>
    <g fill="white" text-rendering="geometricPrecision" shape-rendering="geometricPrecision" transform="translate(-288,116)" stroke="white">
      <rect x="288" width="854" height="935" y="-116" clip-path="url(#clipPath2)" stroke="none"/>
    </g>
    <g fill="url(#linearGradient1)" text-rendering="geometricPrecision" shape-rendering="geometricPrecision" transform="matrix(1,0,0,1,-288,116)" stroke="url(#linearGradient1)">
      <circle r="20" clip-path="url(#clipPath2)" cx="343.2043" cy="-80.75" stroke="none"/>
    </g>
    <g text-rendering="geometricPrecision" stroke-miterlimit="1.45" shape-rendering="geometricPrecision" transform="matrix(1,0,0,1,-288,116)" stroke-linecap="butt">
      <circle fill="none" r="20" clip-path="url(#clipPath2)" cx="343.2043" cy="-80.75"/>
      <text x="339.3702" xml:space="preserve" y="-76.094" clip-path="url(#clipPath2)" font-family="sans-serif" stroke="none">А</text>
    </g>
    <g fill="url(#linearGradient2)" text-rendering="geometricPrecision" shape-rendering="geometricPrecision" transform="matrix(1,0,0,1,-288,116)" stroke="url(#linearGradient2)">
      <circle r="20" clip-path="url(#clipPath2)" cx="622" cy="-80.75" stroke="none"/>
    </g>
    <g text-rendering="geometricPrecision" stroke-miterlimit="1.45" shape-rendering="geometricPrecision" transform="matrix(1,0,0,1,-288,116)" stroke-linecap="butt">
      <circle fill="none" r="20" clip-path="url(#clipPath2)" cx="622" cy="-80.75"/>
      <text x="618.31" xml:space="preserve" y="-76.094" clip-path="url(#clipPath2)" font-family="sans-serif" stroke="none">Б</text>
    </g>
    <g fill="url(#linearGradient3)" text-rendering="geometricPrecision" shape-rendering="geometricPrecision" transform="matrix(1,0,0,1,-288,116)" stroke="url(#linearGradient3)">
      <circle r="20" clip-path="url(#clipPath2)" cx="1041.5" cy="-80.75" stroke="none"/>
    </g>
    <g text-rendering="geometricPrecision" stroke-miterlimit="1.45" shape-rendering="geometricPrecision" transform="matrix(1,0,0,1,-288,116)" stroke-linecap="butt">
      <circle fill="none" r="20" clip-path="url(#clipPath2)" cx="1041.5" cy="-80.75"/>
      <text x="1037.6" xml:space="preserve" y="-76.094" clip-path="url(#clipPath2)" font-family="sans-serif" stroke="none">В</text>
    </g>
    <g fill="url(#linearGradient4)" text-rendering="geometricPrecision" shape-rendering="geometricPrecision" transform="matrix(1,0,0,1,-288,116)" stroke="url(#linearGradient4)">
      <rect x="537" width="170" height="92" y="-38.875" clip-path="url(#clipPath2)" stroke="none"/>
    </g>
    <g text-rendering="geometricPrecision" stroke-miterlimit="1.45" shape-rendering="geometricPrecision" transform="matrix(1,0,0,1,-288,116)" stroke-linecap="butt">
      <rect fill="none" x="537" width="170" height="92" y="-38.875" clip-path="url(#clipPath2)"/>
      <path fill="none" d="M547 -38.875 L547 53.125 M697 -38.875 L697 53.125 M547 -38.875 Z" clip-path="url(#clipPath2)"/>
      <text x="584.4637" xml:space="preserve" y="-4.5631" clip-path="url(#clipPath2)" font-family="sans-serif" stroke="none">expr_status =</text>
      <text x="564.0516" xml:space="preserve" y="11.781" clip-path="url(#clipPath2)" font-family="sans-serif" stroke="none">new_express_status(</text>
      <text x="591.7418" xml:space="preserve" y="28.1251" clip-path="url(#clipPath2)" font-family="sans-serif" stroke="none">game, bet)</text>
    </g>
    <g fill="url(#linearGradient5)" text-rendering="geometricPrecision" shape-rendering="geometricPrecision" transform="matrix(1,0,0,1,-288,116)" stroke="url(#linearGradient5)">
      <path d="M966.5 75 L1116.5 75 L1126.5 85 L1126.5 176 L956.5 176 L956.5 85 Z" stroke="none" clip-path="url(#clipPath2)"/>
    </g>
    <g text-rendering="geometricPrecision" stroke-miterlimit="1.45" shape-rendering="geometricPrecision" transform="matrix(1,0,0,1,-288,116)" stroke-linecap="butt">
      <path fill="none" d="M966.5 75 L1116.5 75 L1126.5 85 L1126.5 176 L956.5 176 L956.5 85 Z" clip-path="url(#clipPath2)"/>
      <text x="1021.5619" xml:space="preserve" y="105.6399" clip-path="url(#clipPath2)" font-family="sans-serif" stroke="none">Цикл 2</text>
      <text x="1039.9399" xml:space="preserve" y="121.984" clip-path="url(#clipPath2)" font-family="sans-serif" stroke="none"> </text>
      <text x="978.4276" xml:space="preserve" y="138.3281" clip-path="url(#clipPath2)" font-family="sans-serif" stroke="none">по всем экспрессам e</text>
      <text x="1005.6978" xml:space="preserve" y="154.6722" clip-path="url(#clipPath2)" font-family="sans-serif" stroke="none">системы bet</text>
    </g>
    <g fill="url(#linearGradient6)" text-rendering="geometricPrecision" shape-rendering="geometricPrecision" transform="matrix(1,0,0,1,-288,116)" stroke="url(#linearGradient6)">
      <path d="M956.5 439.375 L1126.5 439.375 L1126.5 530.375 L1116.5 540.375 L966.5 540.375 L956.5 530.375 Z" stroke="none" clip-path="url(#clipPath2)"/>
    </g>
    <g text-rendering="geometricPrecision" stroke-miterlimit="1.45" shape-rendering="geometricPrecision" transform="matrix(1,0,0,1,-288,116)" stroke-linecap="butt">
      <path fill="none" d="M956.5 439.375 L1126.5 439.375 L1126.5 530.375 L1116.5 540.375 L966.5 540.375 L956.5 530.375 Z" clip-path="url(#clipPath2)"/>
      <text x="998.9537" xml:space="preserve" y="494.531" clip-path="url(#clipPath2)" font-family="sans-serif" stroke="none">Конец цикла 2</text>
    </g>
    <g fill="url(#linearGradient7)" text-rendering="geometricPrecision" shape-rendering="geometricPrecision" transform="matrix(1,0,0,1,-288,116)" stroke="url(#linearGradient7)">
      <path d="M537 83.125 L707 83.125 L707 175.125 L537 175.125 Z" stroke="none" clip-path="url(#clipPath2)"/>
    </g>
    <g text-rendering="geometricPrecision" stroke-miterlimit="1.45" shape-rendering="geometricPrecision" transform="matrix(1,0,0,1,-288,116)" stroke-linecap="butt">
      <path fill="none" d="M537 83.125 L707 83.125 L707 175.125 L537 175.125 Z" clip-path="url(#clipPath2)"/>
      <text x="566.9736" xml:space="preserve" y="125.609" clip-path="url(#clipPath2)" font-family="sans-serif" stroke="none">Установить новый</text>
      <text x="562.7796" xml:space="preserve" y="141.9531" clip-path="url(#clipPath2)" font-family="sans-serif" stroke="none">статус экспресса bet</text>
    </g>
    <g fill="url(#linearGradient8)" text-rendering="geometricPrecision" shape-rendering="geometricPrecision" transform="matrix(1,0,0,1,-288,116)" stroke="url(#linearGradient8)">
      <path d="M634.0958 595.375 L804.0958 595.375 L804.0958 686.375 L794.0958 696.375 L644.0958 696.375 L634.0958 686.375 Z" stroke="none" clip-path="url(#clipPath2)"/>
    </g>
    <g text-rendering="geometricPrecision" stroke-miterlimit="1.45" shape-rendering="geometricPrecision" transform="matrix(1,0,0,1,-288,116)" stroke-linecap="butt">
      <path fill="none" d="M634.0958 595.375 L804.0958 595.375 L804.0958 686.375 L794.0958 696.375 L644.0958 696.375 L634.0958 686.375 Z" clip-path="url(#clipPath2)"/>
      <text x="676.5494" xml:space="preserve" y="650.531" clip-path="url(#clipPath2)" font-family="sans-serif" stroke="none">Конец цикла 1</text>
    </g>
    <g fill="url(#linearGradient9)" text-rendering="geometricPrecision" shape-rendering="geometricPrecision" transform="matrix(1,0,0,1,-288,116)" stroke="url(#linearGradient9)">
      <rect x="634.0957" y="726.375" clip-path="url(#clipPath2)" width="170" rx="38.75" ry="38.75" height="77.5" stroke="none"/>
    </g>
    <g text-rendering="geometricPrecision" stroke-miterlimit="1.45" shape-rendering="geometricPrecision" transform="matrix(1,0,0,1,-288,116)" stroke-linecap="butt">
      <rect x="634.0957" y="726.375" clip-path="url(#clipPath2)" fill="none" width="170" rx="38.75" ry="38.75" height="77.5"/>
      <text x="700.7596" xml:space="preserve" y="769.781" clip-path="url(#clipPath2)" font-family="sans-serif" stroke="none">Конец</text>
    </g>
    <g fill="url(#linearGradient10)" text-rendering="geometricPrecision" shape-rendering="geometricPrecision" transform="matrix(1,0,0,1,-288,116)" stroke="url(#linearGradient10)">
      <path d="M956.5 -38.875 L1126.5 -38.875 L1126.5 53.125 L956.5 53.125 Z" stroke="none" clip-path="url(#clipPath2)"/>
    </g>
    <g text-rendering="geometricPrecision" stroke-miterlimit="1.45" shape-rendering="geometricPrecision" transform="matrix(1,0,0,1,-288,116)" stroke-linecap="butt">
      <path fill="none" d="M956.5 -38.875 L1126.5 -38.875 L1126.5 53.125 L956.5 53.125 Z" clip-path="url(#clipPath2)"/>
      <text x="981.1756" xml:space="preserve" y="-12.7351" clip-path="url(#clipPath2)" font-family="sans-serif" stroke="none">Получить экспрессы</text>
      <text x="1005.6978" xml:space="preserve" y="3.609" clip-path="url(#clipPath2)" font-family="sans-serif" stroke="none">системы bet</text>
      <text x="1003.7897" xml:space="preserve" y="19.9531" clip-path="url(#clipPath2)" font-family="sans-serif" stroke="none">по таблицам</text>
      <text x="982.3276" xml:space="preserve" y="36.2972" clip-path="url(#clipPath2)" font-family="sans-serif" stroke="none">BetEnclosures и Bets</text>
    </g>
    <g fill="url(#linearGradient11)" text-rendering="geometricPrecision" shape-rendering="geometricPrecision" transform="matrix(1,0,0,1,-288,116)" stroke="url(#linearGradient11)">
      <rect x="956.5" width="170" height="92" y="197.875" clip-path="url(#clipPath2)" stroke="none"/>
    </g>
    <g text-rendering="geometricPrecision" stroke-miterlimit="1.45" shape-rendering="geometricPrecision" transform="matrix(1,0,0,1,-288,116)" stroke-linecap="butt">
      <rect fill="none" x="956.5" width="170" height="92" y="197.875" clip-path="url(#clipPath2)"/>
      <path fill="none" d="M966.5 197.875 L966.5 289.875 M1116.5 197.875 L1116.5 289.875 M966.5 197.875 Z" clip-path="url(#clipPath2)"/>
      <text x="1003.9637" xml:space="preserve" y="232.1869" clip-path="url(#clipPath2)" font-family="sans-serif" stroke="none">expr_status =</text>
      <text x="983.5516" xml:space="preserve" y="248.531" clip-path="url(#clipPath2)" font-family="sans-serif" stroke="none">new_express_status(</text>
      <text x="1017.0978" xml:space="preserve" y="264.8752" clip-path="url(#clipPath2)" font-family="sans-serif" stroke="none">game, e)</text>
    </g>
    <g fill="url(#linearGradient12)" text-rendering="geometricPrecision" shape-rendering="geometricPrecision" transform="matrix(1,0,0,1,-288,116)" stroke="url(#linearGradient12)">
      <path d="M956.5 319.875 L1126.5 319.875 L1126.5 411.875 L956.5 411.875 Z" stroke="none" clip-path="url(#clipPath2)"/>
    </g>
    <g text-rendering="geometricPrecision" stroke-miterlimit="1.45" shape-rendering="geometricPrecision" transform="matrix(1,0,0,1,-288,116)" stroke-linecap="butt">
      <path fill="none" d="M956.5 319.875 L1126.5 319.875 L1126.5 411.875 L956.5 411.875 Z" clip-path="url(#clipPath2)"/>
      <text x="986.4736" xml:space="preserve" y="362.359" clip-path="url(#clipPath2)" font-family="sans-serif" stroke="none">Установить новый</text>
      <text x="988.1356" xml:space="preserve" y="378.7031" clip-path="url(#clipPath2)" font-family="sans-serif" stroke="none">статус экспресса e</text>
    </g>
    <g text-rendering="geometricPrecision" stroke-miterlimit="1.45" shape-rendering="geometricPrecision" transform="matrix(1,0,0,1,-288,116)" stroke-linecap="butt">
      <path fill="none" d="M622 -60.7121 L622 -38.8837" clip-path="url(#clipPath2)"/>
    </g>
    <g text-rendering="geometricPrecision" stroke-miterlimit="1.45" shape-rendering="geometricPrecision" transform="matrix(1,0,0,1,-288,116)" stroke-linecap="butt">
      <path fill="none" d="M622 53.1431 L622 83.1574" clip-path="url(#clipPath2)"/>
      <path fill="none" d="M1041.5 540.3748 L1041.5 560.375 L719.0958 560.375 L719.0958 587.4016" clip-path="url(#clipPath2)"/>
      <path d="M719.0958 595.4016 L724.0958 583.4016 L719.0958 586.4016 L714.0958 583.4016 Z" clip-path="url(#clipPath2)" stroke="none"/>
      <path fill="none" d="M343.2043 -60.754 L343.2043 560.375 L719.0958 560.375 L719.0958 595.4016" clip-path="url(#clipPath2)"/>
      <path fill="none" d="M622 175.1085 L622 560.375 L719.0958 560.375 L719.0958 595.4016" clip-path="url(#clipPath2)"/>
      <path fill="none" d="M719.0958 696.3874 L719.0958 726.3594" clip-path="url(#clipPath2)"/>
      <path fill="none" d="M1041.5 -60.7121 L1041.5 -38.8837" clip-path="url(#clipPath2)"/>
      <path fill="none" d="M1041.5 53.1051 L1041.5 74.9862" clip-path="url(#clipPath2)"/>
      <path fill="none" d="M1041.5 175.9886 L1041.5 197.8992" clip-path="url(#clipPath2)"/>
      <path fill="none" d="M1041.5 289.8931 L1041.5 319.9074" clip-path="url(#clipPath2)"/>
      <path fill="none" d="M1041.5 411.8604 L1041.5 439.4016" clip-path="url(#clipPath2)"/>
    </g>
  </g>
</svg>
