<?xml version="1.0" encoding="UTF-8"?><svg xmlns="http://www.w3.org/2000/svg" xmlns:xlink="http://www.w3.org/1999/xlink" fill-opacity="1" color-rendering="auto" color-interpolation="auto" text-rendering="auto" stroke="black" stroke-linecap="square" width="1210" stroke-miterlimit="10" shape-rendering="auto" stroke-opacity="1" fill="black" stroke-dasharray="none" font-weight="normal" stroke-width="1" height="683" font-family="'Dialog'" font-style="normal" stroke-linejoin="miter" font-size="12px" stroke-dashoffset="0" image-rendering="auto">
  <!--Generated by ySVG 2.6-->
  <defs id="genericDefs"/>
  <g>
    <defs id="defs1">
      <linearGradient x1="538" gradientUnits="userSpaceOnUse" x2="708" y1="37.5" y2="115" id="linearGradient1" spreadMethod="reflect">
        <stop stop-opacity="1" stop-color="white" offset="0%"/>
        <stop stop-opacity="1" stop-color="white" offset="100%"/>
      </linearGradient>
      <linearGradient x1="769" gradientUnits="userSpaceOnUse" x2="860" y1="25.75" y2="126.75" id="linearGradient2" spreadMethod="reflect">
        <stop stop-opacity="1" stop-color="white" offset="0%"/>
        <stop stop-opacity="1" stop-color="white" offset="100%"/>
      </linearGradient>
      <linearGradient x1="538" gradientUnits="userSpaceOnUse" x2="708" y1="145" y2="246" id="linearGradient3" spreadMethod="reflect">
        <stop stop-opacity="1" stop-color="white" offset="0%"/>
        <stop stop-opacity="1" stop-color="white" offset="100%"/>
      </linearGradient>
      <linearGradient x1="741.5" gradientUnits="userSpaceOnUse" x2="918.5" y1="334.75" y2="412.25" id="linearGradient4" spreadMethod="reflect">
        <stop stop-opacity="1" stop-color="white" offset="0%"/>
        <stop stop-opacity="1" stop-color="white" offset="100%"/>
      </linearGradient>
      <linearGradient x1="534.5" gradientUnits="userSpaceOnUse" x2="711.5" y1="276" y2="353.5" id="linearGradient5" spreadMethod="reflect">
        <stop stop-opacity="1" stop-color="white" offset="0%"/>
        <stop stop-opacity="1" stop-color="white" offset="100%"/>
      </linearGradient>
      <linearGradient x1="343" gradientUnits="userSpaceOnUse" x2="520" y1="334.75" y2="412.25" id="linearGradient6" spreadMethod="reflect">
        <stop stop-opacity="1" stop-color="white" offset="0%"/>
        <stop stop-opacity="1" stop-color="white" offset="100%"/>
      </linearGradient>
      <linearGradient x1="136" gradientUnits="userSpaceOnUse" x2="313" y1="393.5" y2="471" id="linearGradient7" spreadMethod="reflect">
        <stop stop-opacity="1" stop-color="white" offset="0%"/>
        <stop stop-opacity="1" stop-color="white" offset="100%"/>
      </linearGradient>
      <linearGradient x1="927.5" gradientUnits="userSpaceOnUse" x2="1104.5" y1="412.25" y2="489.75" id="linearGradient8" spreadMethod="reflect">
        <stop stop-opacity="1" stop-color="white" offset="0%"/>
        <stop stop-opacity="1" stop-color="white" offset="100%"/>
      </linearGradient>
      <linearGradient x1="1104.5" gradientUnits="userSpaceOnUse" x2="1274.5" y1="471" y2="563" id="linearGradient9" spreadMethod="reflect">
        <stop stop-opacity="1" stop-color="white" offset="0%"/>
        <stop stop-opacity="1" stop-color="white" offset="100%"/>
      </linearGradient>
      <linearGradient x1="583" gradientUnits="userSpaceOnUse" x2="663" y1="637.25" y2="677.25" id="linearGradient10" spreadMethod="reflect">
        <stop stop-opacity="1" stop-color="white" offset="0%"/>
        <stop stop-opacity="1" stop-color="white" offset="100%"/>
      </linearGradient>
      <linearGradient x1="520" gradientUnits="userSpaceOnUse" x2="600" y1="412.25" y2="452.25" id="linearGradient11" spreadMethod="reflect">
        <stop stop-opacity="1" stop-color="white" offset="0%"/>
        <stop stop-opacity="1" stop-color="white" offset="100%"/>
      </linearGradient>
      <linearGradient x1="294.6667" gradientUnits="userSpaceOnUse" x2="374.6667" y1="459.25" y2="499.25" id="linearGradient12" spreadMethod="reflect">
        <stop stop-opacity="1" stop-color="white" offset="0%"/>
        <stop stop-opacity="1" stop-color="white" offset="100%"/>
      </linearGradient>
      <linearGradient x1="745" gradientUnits="userSpaceOnUse" x2="915" y1="471" y2="563" id="linearGradient13" spreadMethod="reflect">
        <stop stop-opacity="1" stop-color="white" offset="0%"/>
        <stop stop-opacity="1" stop-color="white" offset="100%"/>
      </linearGradient>
      <clipPath clipPathUnits="userSpaceOnUse" id="clipPath1">
        <path d="M0 0 L1210 0 L1210 683 L0 683 L0 0 Z"/>
      </clipPath>
      <clipPath clipPathUnits="userSpaceOnUse" id="clipPath2">
        <path d="M80 10 L1290 10 L1290 693 L80 693 L80 10 Z"/>
      </clipPath>
    </defs>
    <g fill="white" text-rendering="geometricPrecision" shape-rendering="geometricPrecision" transform="translate(-80,-10)" stroke="white">
      <rect x="80" width="1210" height="683" y="10" clip-path="url(#clipPath2)" stroke="none"/>
    </g>
    <g fill="url(#linearGradient1)" text-rendering="geometricPrecision" shape-rendering="geometricPrecision" transform="matrix(1,0,0,1,-80,-10)" stroke="url(#linearGradient1)">
      <rect x="538" y="37.5" clip-path="url(#clipPath2)" width="170" rx="38.75" ry="38.75" height="77.5" stroke="none"/>
    </g>
    <g text-rendering="geometricPrecision" stroke-miterlimit="1.45" shape-rendering="geometricPrecision" transform="matrix(1,0,0,1,-80,-10)" stroke-linecap="butt">
      <rect x="538" y="37.5" clip-path="url(#clipPath2)" fill="none" width="170" rx="38.75" ry="38.75" height="77.5"/>
      <text x="601.0458" xml:space="preserve" y="80.906" clip-path="url(#clipPath2)" font-family="sans-serif" stroke="none">Начало</text>
    </g>
    <g fill="url(#linearGradient2)" text-rendering="geometricPrecision" shape-rendering="geometricPrecision" transform="matrix(1,0,0,1,-80,-10)" stroke="url(#linearGradient2)">
      <rect x="769" width="91" height="101" y="25.75" clip-path="url(#clipPath2)" stroke="none"/>
    </g>
    <g text-rendering="geometricPrecision" stroke-miterlimit="1.45" shape-rendering="geometricPrecision" transform="matrix(1,0,0,1,-80,-10)" stroke-linecap="butt">
      <path fill="none" d="M780.375 25.75 L769 25.75 L769 126.75 L780.375 126.75" clip-path="url(#clipPath2)"/>
      <text x="785.5215" xml:space="preserve" y="64.5619" clip-path="url(#clipPath2)" font-family="sans-serif" stroke="none">Триггер срабатывает</text>
      <text x="785.5215" xml:space="preserve" y="80.906" clip-path="url(#clipPath2)" font-family="sans-serif" stroke="none">после завершения</text>
      <text x="785.5215" xml:space="preserve" y="97.2501" clip-path="url(#clipPath2)" font-family="sans-serif" stroke="none">шахматной партии game</text>
    </g>
    <g fill="url(#linearGradient3)" text-rendering="geometricPrecision" shape-rendering="geometricPrecision" transform="matrix(1,0,0,1,-80,-10)" stroke="url(#linearGradient3)">
      <path d="M548 145 L698 145 L708 155 L708 246 L538 246 L538 155 Z" stroke="none" clip-path="url(#clipPath2)"/>
    </g>
    <g text-rendering="geometricPrecision" stroke-miterlimit="1.45" shape-rendering="geometricPrecision" transform="matrix(1,0,0,1,-80,-10)" stroke-linecap="butt">
      <path fill="none" d="M548 145 L698 145 L708 155 L708 246 L538 246 L538 155 Z" clip-path="url(#clipPath2)"/>
      <text x="603.0619" xml:space="preserve" y="175.6399" clip-path="url(#clipPath2)" font-family="sans-serif" stroke="none">Цикл 1</text>
      <text x="621.44" xml:space="preserve" y="191.984" clip-path="url(#clipPath2)" font-family="sans-serif" stroke="none"> </text>
      <text x="563.9356" xml:space="preserve" y="208.3281" clip-path="url(#clipPath2)" font-family="sans-serif" stroke="none">по всем ставкам bet</text>
      <text x="586.3878" xml:space="preserve" y="224.6722" clip-path="url(#clipPath2)" font-family="sans-serif" stroke="none">таблицы Bet</text>
    </g>
    <g fill="url(#linearGradient4)" text-rendering="geometricPrecision" shape-rendering="geometricPrecision" transform="matrix(1,0,0,1,-80,-10)" stroke="url(#linearGradient4)">
      <path d="M830 334.75 L918.5 373.5 L830 412.25 L741.5 373.5 Z" stroke="none" clip-path="url(#clipPath2)"/>
    </g>
    <g text-rendering="geometricPrecision" stroke-miterlimit="1.45" shape-rendering="geometricPrecision" transform="matrix(1,0,0,1,-80,-10)" stroke-linecap="butt">
      <path fill="none" d="M830 334.75 L918.5 373.5 L830 412.25 L741.5 373.5 Z" clip-path="url(#clipPath2)"/>
      <text x="799.1898" xml:space="preserve" y="361.8119" clip-path="url(#clipPath2)" font-family="sans-serif" stroke="none">Ставка bet</text>
      <text x="771.4276" xml:space="preserve" y="378.156" clip-path="url(#clipPath2)" font-family="sans-serif" stroke="none">сделана для партии</text>
      <text x="811.3459" xml:space="preserve" y="394.5002" clip-path="url(#clipPath2)" font-family="sans-serif" stroke="none">game?</text>
    </g>
    <g fill="url(#linearGradient5)" text-rendering="geometricPrecision" shape-rendering="geometricPrecision" transform="matrix(1,0,0,1,-80,-10)" stroke="url(#linearGradient5)">
      <path d="M623 276 L711.5 314.75 L623 353.5 L534.5 314.75 Z" stroke="none" clip-path="url(#clipPath2)"/>
    </g>
    <g text-rendering="geometricPrecision" stroke-miterlimit="1.45" shape-rendering="geometricPrecision" transform="matrix(1,0,0,1,-80,-10)" stroke-linecap="butt">
      <path fill="none" d="M623 276 L711.5 314.75 L623 353.5 L534.5 314.75 Z" clip-path="url(#clipPath2)"/>
      <text x="576.3137" xml:space="preserve" y="311.234" clip-path="url(#clipPath2)" font-family="sans-serif" stroke="none">bet - одинарная</text>
      <text x="601.2979" xml:space="preserve" y="327.5781" clip-path="url(#clipPath2)" font-family="sans-serif" stroke="none">ставка?</text>
    </g>
    <g fill="url(#linearGradient6)" text-rendering="geometricPrecision" shape-rendering="geometricPrecision" transform="matrix(1,0,0,1,-80,-10)" stroke="url(#linearGradient6)">
      <path d="M431.5 334.75 L520 373.5 L431.5 412.25 L343 373.5 Z" stroke="none" clip-path="url(#clipPath2)"/>
    </g>
    <g text-rendering="geometricPrecision" stroke-miterlimit="1.45" shape-rendering="geometricPrecision" transform="matrix(1,0,0,1,-80,-10)" stroke-linecap="butt">
      <path fill="none" d="M431.5 334.75 L520 373.5 L431.5 412.25 L343 373.5 Z" clip-path="url(#clipPath2)"/>
      <text x="389.0077" xml:space="preserve" y="378.156" clip-path="url(#clipPath2)" font-family="sans-serif" stroke="none">bet - экспресс?</text>
    </g>
    <g fill="url(#linearGradient7)" text-rendering="geometricPrecision" shape-rendering="geometricPrecision" transform="matrix(1,0,0,1,-80,-10)" stroke="url(#linearGradient7)">
      <path d="M224.5 393.5 L313 432.25 L224.5 471 L136 432.25 Z" stroke="none" clip-path="url(#clipPath2)"/>
    </g>
    <g text-rendering="geometricPrecision" stroke-miterlimit="1.45" shape-rendering="geometricPrecision" transform="matrix(1,0,0,1,-80,-10)" stroke-linecap="butt">
      <path fill="none" d="M224.5 393.5 L313 432.25 L224.5 471 L136 432.25 Z" clip-path="url(#clipPath2)"/>
      <text x="183.9037" xml:space="preserve" y="436.906" clip-path="url(#clipPath2)" font-family="sans-serif" stroke="none">bet - система?</text>
    </g>
    <g fill="url(#linearGradient8)" text-rendering="geometricPrecision" shape-rendering="geometricPrecision" transform="matrix(1,0,0,1,-80,-10)" stroke="url(#linearGradient8)">
      <path d="M1016 412.25 L1104.5 451 L1016 489.75 L927.5 451 Z" stroke="none" clip-path="url(#clipPath2)"/>
    </g>
    <g text-rendering="geometricPrecision" stroke-miterlimit="1.45" shape-rendering="geometricPrecision" transform="matrix(1,0,0,1,-80,-10)" stroke-linecap="butt">
      <path fill="none" d="M1016 412.25 L1104.5 451 L1016 489.75 L927.5 451 Z" clip-path="url(#clipPath2)"/>
      <text x="970.4297" xml:space="preserve" y="447.484" clip-path="url(#clipPath2)" font-family="sans-serif" stroke="none">Условие ставки</text>
      <text x="979.7717" xml:space="preserve" y="463.8281" clip-path="url(#clipPath2)" font-family="sans-serif" stroke="none">выполнено?</text>
    </g>
    <g fill="url(#linearGradient9)" text-rendering="geometricPrecision" shape-rendering="geometricPrecision" transform="matrix(1,0,0,1,-80,-10)" stroke="url(#linearGradient9)">
      <path d="M1104.5 471 L1274.5 471 L1274.5 563 L1104.5 563 Z" stroke="none" clip-path="url(#clipPath2)"/>
    </g>
    <g text-rendering="geometricPrecision" stroke-miterlimit="1.45" shape-rendering="geometricPrecision" transform="matrix(1,0,0,1,-80,-10)" stroke-linecap="butt">
      <path fill="none" d="M1104.5 471 L1274.5 471 L1274.5 563 L1104.5 563 Z" clip-path="url(#clipPath2)"/>
      <text x="1150.1637" xml:space="preserve" y="505.3119" clip-path="url(#clipPath2)" font-family="sans-serif" stroke="none">Отметить bet</text>
      <text x="1139.1237" xml:space="preserve" y="521.656" clip-path="url(#clipPath2)" font-family="sans-serif" stroke="none">как сработанную</text>
      <text x="1170.7079" xml:space="preserve" y="538.0001" clip-path="url(#clipPath2)" font-family="sans-serif" stroke="none">ставку</text>
    </g>
    <g fill="url(#linearGradient10)" text-rendering="geometricPrecision" shape-rendering="geometricPrecision" transform="matrix(1,0,0,1,-80,-10)" stroke="url(#linearGradient10)">
      <circle r="20" clip-path="url(#clipPath2)" cx="623" cy="657.25" stroke="none"/>
    </g>
    <g text-rendering="geometricPrecision" stroke-miterlimit="1.45" shape-rendering="geometricPrecision" transform="matrix(1,0,0,1,-80,-10)" stroke-linecap="butt">
      <circle fill="none" r="20" clip-path="url(#clipPath2)" cx="623" cy="657.25"/>
      <text x="619.166" xml:space="preserve" y="661.906" clip-path="url(#clipPath2)" font-family="sans-serif" stroke="none">А</text>
    </g>
    <g fill="url(#linearGradient11)" text-rendering="geometricPrecision" shape-rendering="geometricPrecision" transform="matrix(1,0,0,1,-80,-10)" stroke="url(#linearGradient11)">
      <circle r="20" clip-path="url(#clipPath2)" cx="560" cy="432.25" stroke="none"/>
    </g>
    <g text-rendering="geometricPrecision" stroke-miterlimit="1.45" shape-rendering="geometricPrecision" transform="matrix(1,0,0,1,-80,-10)" stroke-linecap="butt">
      <circle fill="none" r="20" clip-path="url(#clipPath2)" cx="560" cy="432.25"/>
      <text x="556.31" xml:space="preserve" y="436.906" clip-path="url(#clipPath2)" font-family="sans-serif" stroke="none">Б</text>
    </g>
    <g fill="url(#linearGradient12)" text-rendering="geometricPrecision" shape-rendering="geometricPrecision" transform="matrix(1,0,0,1,-80,-10)" stroke="url(#linearGradient12)">
      <circle r="20" clip-path="url(#clipPath2)" cx="334.6667" cy="479.25" stroke="none"/>
    </g>
    <g text-rendering="geometricPrecision" stroke-miterlimit="1.45" shape-rendering="geometricPrecision" transform="matrix(1,0,0,1,-80,-10)" stroke-linecap="butt">
      <circle fill="none" r="20" clip-path="url(#clipPath2)" cx="334.6667" cy="479.25"/>
      <text x="330.7666" xml:space="preserve" y="483.906" clip-path="url(#clipPath2)" font-family="sans-serif" stroke="none">В</text>
    </g>
    <g fill="url(#linearGradient13)" text-rendering="geometricPrecision" shape-rendering="geometricPrecision" transform="matrix(1,0,0,1,-80,-10)" stroke="url(#linearGradient13)">
      <path d="M745 471 L915 471 L915 563 L745 563 Z" stroke="none" clip-path="url(#clipPath2)"/>
    </g>
    <g text-rendering="geometricPrecision" stroke-miterlimit="1.45" shape-rendering="geometricPrecision" transform="matrix(1,0,0,1,-80,-10)" stroke-linecap="butt">
      <path fill="none" d="M745 471 L915 471 L915 563 L745 563 Z" clip-path="url(#clipPath2)"/>
      <text x="790.6637" xml:space="preserve" y="505.3119" clip-path="url(#clipPath2)" font-family="sans-serif" stroke="none">Отметить bet</text>
      <text x="778.2676" xml:space="preserve" y="521.656" clip-path="url(#clipPath2)" font-family="sans-serif" stroke="none">как проваленную</text>
      <text x="811.2079" xml:space="preserve" y="538.0001" clip-path="url(#clipPath2)" font-family="sans-serif" stroke="none">ставку</text>
    </g>
    <g text-rendering="geometricPrecision" stroke-miterlimit="1.45" stroke-dasharray="6,2" shape-rendering="geometricPrecision" transform="matrix(1,0,0,1,-80,-10)" stroke-linecap="butt">
      <path fill="none" d="M708.0436 76.25 L768.9909 76.25" clip-path="url(#clipPath2)"/>
    </g>
    <g text-rendering="geometricPrecision" stroke-miterlimit="1.45" shape-rendering="geometricPrecision" transform="matrix(1,0,0,1,-80,-10)" stroke-linecap="butt">
      <path fill="none" d="M623 115.0004 L623 144.9912" clip-path="url(#clipPath2)"/>
      <path fill="none" d="M623 246.0124 L623 275.9844" clip-path="url(#clipPath2)"/>
      <path fill="none" d="M711.5157 314.75 L830 314.75 L830 326.7445" clip-path="url(#clipPath2)"/>
      <path d="M830 334.7445 L835 322.7445 L830 325.7445 L825 322.7445 Z" clip-path="url(#clipPath2)" stroke="none"/>
      <text x="713.1523" xml:space="preserve" y="308.7737" clip-path="url(#clipPath2)" font-family="sans-serif" stroke="none">да</text>
      <path fill="none" d="M534.4967 314.75 L431.5 314.75 L431.5 326.7445" clip-path="url(#clipPath2)"/>
      <path d="M431.5 334.7445 L436.5 322.7445 L431.5 325.7445 L426.5 322.7445 Z" clip-path="url(#clipPath2)" stroke="none"/>
      <path fill="none" d="M342.9843 373.5 L224.5 373.5 L224.5 385.4945" clip-path="url(#clipPath2)"/>
      <path d="M224.5 393.4945 L229.5 381.4945 L224.5 384.4945 L219.5 381.4945 Z" clip-path="url(#clipPath2)" stroke="none"/>
      <path fill="none" d="M918.5044 373.5 L1016 373.5 L1016 404.2878" clip-path="url(#clipPath2)"/>
      <path d="M1016 412.2878 L1021 400.2878 L1016 403.2878 L1011 400.2878 Z" clip-path="url(#clipPath2)" stroke="none"/>
      <text x="918.4603" xml:space="preserve" y="366.0033" clip-path="url(#clipPath2)" font-family="sans-serif" stroke="none">да</text>
      <path fill="none" d="M1104.4867 451 L1189.5 451 L1189.5 463.0127" clip-path="url(#clipPath2)"/>
      <path d="M1189.5 471.0127 L1194.5 459.0127 L1189.5 462.0127 L1184.5 459.0127 Z" clip-path="url(#clipPath2)" stroke="none"/>
      <text x="1107.6475" xml:space="preserve" y="441.6158" clip-path="url(#clipPath2)" font-family="sans-serif" stroke="none">да</text>
      <path fill="none" d="M136.022 432.25 L95.3 432.25 L95.3 617.25 L623 617.25 L623 629.2891" clip-path="url(#clipPath2)"/>
      <path d="M623 637.2891 L628 625.2891 L623 628.2891 L618 625.2891 Z" clip-path="url(#clipPath2)" stroke="none"/>
      <path fill="none" d="M741.4683 373.5 L696.7307 373.5 L696.7307 617.25 L623 617.25 L623 617.25 L623 637.2217" clip-path="url(#clipPath2)"/>
      <path fill="none" d="M1189.5 562.9642 L1189.5 617.25 L623 617.25 L623 637.2503" clip-path="url(#clipPath2)"/>
      <path fill="none" d="M520.0006 373.5 L560 373.5 L560 404.2555" clip-path="url(#clipPath2)"/>
      <path d="M560 412.2555 L565 400.2555 L560 403.2555 L555 400.2555 Z" clip-path="url(#clipPath2)" stroke="none"/>
      <text x="521.7239" xml:space="preserve" y="365.2299" clip-path="url(#clipPath2)" font-family="sans-serif" stroke="none">да</text>
      <path fill="none" d="M313.0153 432.25 L334.6667 432.25 L334.6667 451.2842" clip-path="url(#clipPath2)"/>
      <path d="M334.6667 459.2842 L339.6667 447.2842 L334.6667 450.2842 L329.6667 447.2842 Z" clip-path="url(#clipPath2)" stroke="none"/>
      <text x="316.9813" xml:space="preserve" y="424.2729" clip-path="url(#clipPath2)" font-family="sans-serif" stroke="none">да</text>
      <path fill="none" d="M927.4956 451 L830 451 L830 463.0127" clip-path="url(#clipPath2)"/>
      <path d="M830 471.0127 L835 459.0127 L830 462.0127 L825 459.0127 Z" clip-path="url(#clipPath2)" stroke="none"/>
      <path fill="none" d="M830 562.9642 L830 617.25 L623 617.25 L623 637.2786" clip-path="url(#clipPath2)"/>
    </g>
  </g>
</svg>
