<?xml version="1.0" encoding="UTF-8"?><svg xmlns="http://www.w3.org/2000/svg" xmlns:xlink="http://www.w3.org/1999/xlink" fill-opacity="1" color-rendering="auto" color-interpolation="auto" text-rendering="auto" stroke="black" stroke-linecap="square" width="651" stroke-miterlimit="10" shape-rendering="auto" stroke-opacity="1" fill="black" stroke-dasharray="none" font-weight="normal" stroke-width="1" height="1072" font-family="'Dialog'" font-style="normal" stroke-linejoin="miter" font-size="12px" stroke-dashoffset="0" image-rendering="auto">
  <!--Generated by ySVG 2.6-->
  <defs id="genericDefs"/>
  <g>
    <defs id="defs1">
      <linearGradient x1="563" gradientUnits="userSpaceOnUse" x2="733" y1="63.25" y2="140.75" id="linearGradient1" spreadMethod="reflect">
        <stop stop-opacity="1" stop-color="white" offset="0%"/>
        <stop stop-opacity="1" stop-color="white" offset="100%"/>
      </linearGradient>
      <linearGradient x1="794" gradientUnits="userSpaceOnUse" x2="885" y1="51.5" y2="152.5" id="linearGradient2" spreadMethod="reflect">
        <stop stop-opacity="1" stop-color="white" offset="0%"/>
        <stop stop-opacity="1" stop-color="white" offset="100%"/>
      </linearGradient>
      <linearGradient x1="563" gradientUnits="userSpaceOnUse" x2="733" y1="170.75" y2="262.75" id="linearGradient3" spreadMethod="reflect">
        <stop stop-opacity="1" stop-color="white" offset="0%"/>
        <stop stop-opacity="1" stop-color="white" offset="100%"/>
      </linearGradient>
      <linearGradient x1="563" gradientUnits="userSpaceOnUse" x2="733" y1="292.75" y2="393.75" id="linearGradient4" spreadMethod="reflect">
        <stop stop-opacity="1" stop-color="white" offset="0%"/>
        <stop stop-opacity="1" stop-color="white" offset="100%"/>
      </linearGradient>
      <linearGradient x1="560" gradientUnits="userSpaceOnUse" x2="737" y1="423.75" y2="501.25" id="linearGradient5" spreadMethod="reflect">
        <stop stop-opacity="1" stop-color="white" offset="0%"/>
        <stop stop-opacity="1" stop-color="white" offset="100%"/>
      </linearGradient>
      <linearGradient x1="737" gradientUnits="userSpaceOnUse" x2="914" y1="501.25" y2="578.75" id="linearGradient6" spreadMethod="reflect">
        <stop stop-opacity="1" stop-color="white" offset="0%"/>
        <stop stop-opacity="1" stop-color="white" offset="100%"/>
      </linearGradient>
      <linearGradient x1="944" gradientUnits="userSpaceOnUse" x2="1114" y1="608.75" y2="700.75" id="linearGradient7" spreadMethod="reflect">
        <stop stop-opacity="1" stop-color="white" offset="0%"/>
        <stop stop-opacity="1" stop-color="white" offset="100%"/>
      </linearGradient>
      <linearGradient x1="563.5" gradientUnits="userSpaceOnUse" x2="733.5" y1="762" y2="863" id="linearGradient8" spreadMethod="reflect">
        <stop stop-opacity="1" stop-color="white" offset="0%"/>
        <stop stop-opacity="1" stop-color="white" offset="100%"/>
      </linearGradient>
      <linearGradient x1="563.5" gradientUnits="userSpaceOnUse" x2="733.5" y1="893" y2="985" id="linearGradient9" spreadMethod="reflect">
        <stop stop-opacity="1" stop-color="white" offset="0%"/>
        <stop stop-opacity="1" stop-color="white" offset="100%"/>
      </linearGradient>
      <linearGradient x1="563.5" gradientUnits="userSpaceOnUse" x2="733.5" y1="1015" y2="1092.5" id="linearGradient10" spreadMethod="reflect">
        <stop stop-opacity="1" stop-color="white" offset="0%"/>
        <stop stop-opacity="1" stop-color="white" offset="100%"/>
      </linearGradient>
      <linearGradient x1="792.75" gradientUnits="userSpaceOnUse" x2="883.75" y1="888.5" y2="989.5" id="linearGradient11" spreadMethod="reflect">
        <stop stop-opacity="1" stop-color="white" offset="0%"/>
        <stop stop-opacity="1" stop-color="white" offset="100%"/>
      </linearGradient>
      <clipPath clipPathUnits="userSpaceOnUse" id="clipPath1">
        <path d="M0 0 L651 0 L651 1072 L0 1072 L0 0 Z"/>
      </clipPath>
      <clipPath clipPathUnits="userSpaceOnUse" id="clipPath2">
        <path d="M478 36 L1129 36 L1129 1108 L478 1108 L478 36 Z"/>
      </clipPath>
    </defs>
    <g fill="white" text-rendering="geometricPrecision" shape-rendering="geometricPrecision" transform="translate(-478,-36)" stroke="white">
      <rect x="478" width="651" height="1072" y="36" clip-path="url(#clipPath2)" stroke="none"/>
    </g>
    <g fill="url(#linearGradient1)" text-rendering="geometricPrecision" shape-rendering="geometricPrecision" transform="matrix(1,0,0,1,-478,-36)" stroke="url(#linearGradient1)">
      <rect x="563" y="63.25" clip-path="url(#clipPath2)" width="170" rx="38.75" ry="38.75" height="77.5" stroke="none"/>
    </g>
    <g text-rendering="geometricPrecision" stroke-miterlimit="1.45" shape-rendering="geometricPrecision" transform="matrix(1,0,0,1,-478,-36)" stroke-linecap="butt">
      <rect x="563" y="63.25" clip-path="url(#clipPath2)" fill="none" width="170" rx="38.75" ry="38.75" height="77.5"/>
      <text x="626.0458" xml:space="preserve" y="106.656" clip-path="url(#clipPath2)" font-family="sans-serif" stroke="none">Начало</text>
    </g>
    <g fill="url(#linearGradient2)" text-rendering="geometricPrecision" shape-rendering="geometricPrecision" transform="matrix(1,0,0,1,-478,-36)" stroke="url(#linearGradient2)">
      <rect x="794" width="91" height="101" y="51.5" clip-path="url(#clipPath2)" stroke="none"/>
    </g>
    <g text-rendering="geometricPrecision" stroke-miterlimit="1.45" shape-rendering="geometricPrecision" transform="matrix(1,0,0,1,-478,-36)" stroke-linecap="butt">
      <path fill="none" d="M805.375 51.5 L794 51.5 L794 152.5 L805.375 152.5" clip-path="url(#clipPath2)"/>
      <text x="824.1441" xml:space="preserve" y="90.3119" clip-path="url(#clipPath2)" font-family="sans-serif" stroke="none">Триггер срабатывает после</text>
      <text x="824.1441" xml:space="preserve" y="106.656" clip-path="url(#clipPath2)" font-family="sans-serif" stroke="none">удаления хода из</text>
      <text x="824.1441" xml:space="preserve" y="123.0001" clip-path="url(#clipPath2)" font-family="sans-serif" stroke="none">шахматной партии game</text>
    </g>
    <g fill="url(#linearGradient3)" text-rendering="geometricPrecision" shape-rendering="geometricPrecision" transform="matrix(1,0,0,1,-478,-36)" stroke="url(#linearGradient3)">
      <path d="M563 170.75 L733 170.75 L733 262.75 L563 262.75 Z" stroke="none" clip-path="url(#clipPath2)"/>
    </g>
    <g text-rendering="geometricPrecision" stroke-miterlimit="1.45" shape-rendering="geometricPrecision" transform="matrix(1,0,0,1,-478,-36)" stroke-linecap="butt">
      <path fill="none" d="M563 170.75 L733 170.75 L733 262.75 L563 262.75 Z" clip-path="url(#clipPath2)"/>
      <text x="610.9197" xml:space="preserve" y="196.8899" clip-path="url(#clipPath2)" font-family="sans-serif" stroke="none">num - номер</text>
      <text x="596.7236" xml:space="preserve" y="213.234" clip-path="url(#clipPath2)" font-family="sans-serif" stroke="none">удаляемого хода,</text>
      <text x="610.8657" xml:space="preserve" y="229.5781" clip-path="url(#clipPath2)" font-family="sans-serif" stroke="none">полученный</text>
      <text x="577.3735" xml:space="preserve" y="245.9222" clip-path="url(#clipPath2)" font-family="sans-serif" stroke="none">из таблицы GameMoves</text>
    </g>
    <g fill="url(#linearGradient4)" text-rendering="geometricPrecision" shape-rendering="geometricPrecision" transform="matrix(1,0,0,1,-478,-36)" stroke="url(#linearGradient4)">
      <path d="M573 292.75 L723 292.75 L733 302.75 L733 393.75 L563 393.75 L563 302.75 Z" stroke="none" clip-path="url(#clipPath2)"/>
    </g>
    <g text-rendering="geometricPrecision" stroke-miterlimit="1.45" shape-rendering="geometricPrecision" transform="matrix(1,0,0,1,-478,-36)" stroke-linecap="butt">
      <path fill="none" d="M573 292.75 L723 292.75 L733 302.75 L733 393.75 L563 393.75 L563 302.75 Z" clip-path="url(#clipPath2)"/>
      <text x="628.0619" xml:space="preserve" y="315.2178" clip-path="url(#clipPath2)" font-family="sans-serif" stroke="none">Цикл 1</text>
      <text x="646.44" xml:space="preserve" y="331.5619" clip-path="url(#clipPath2)" font-family="sans-serif" stroke="none"> </text>
      <text x="598.6917" xml:space="preserve" y="347.906" clip-path="url(#clipPath2)" font-family="sans-serif" stroke="none">по всем записям</text>
      <text x="613.6138" xml:space="preserve" y="364.2502" clip-path="url(#clipPath2)" font-family="sans-serif" stroke="none">game_move</text>
      <text x="585.7316" xml:space="preserve" y="380.5943" clip-path="url(#clipPath2)" font-family="sans-serif" stroke="none">таблицы GameMoves</text>
    </g>
    <g fill="url(#linearGradient5)" text-rendering="geometricPrecision" shape-rendering="geometricPrecision" transform="matrix(1,0,0,1,-478,-36)" stroke="url(#linearGradient5)">
      <path d="M648.5 423.75 L737 462.5 L648.5 501.25 L560 462.5 Z" stroke="none" clip-path="url(#clipPath2)"/>
    </g>
    <g text-rendering="geometricPrecision" stroke-miterlimit="1.45" shape-rendering="geometricPrecision" transform="matrix(1,0,0,1,-478,-36)" stroke-linecap="butt">
      <path fill="none" d="M648.5 423.75 L737 462.5 L648.5 501.25 L560 462.5 Z" clip-path="url(#clipPath2)"/>
      <text x="614.1138" xml:space="preserve" y="450.8119" clip-path="url(#clipPath2)" font-family="sans-serif" stroke="none">game_move</text>
      <text x="610.0157" xml:space="preserve" y="467.156" clip-path="url(#clipPath2)" font-family="sans-serif" stroke="none">ссылается на</text>
      <text x="629.8459" xml:space="preserve" y="483.5002" clip-path="url(#clipPath2)" font-family="sans-serif" stroke="none">game?</text>
    </g>
    <g fill="url(#linearGradient6)" text-rendering="geometricPrecision" shape-rendering="geometricPrecision" transform="matrix(1,0,0,1,-478,-36)" stroke="url(#linearGradient6)">
      <path d="M825.5 501.25 L914 540 L825.5 578.75 L737 540 Z" stroke="none" clip-path="url(#clipPath2)"/>
    </g>
    <g text-rendering="geometricPrecision" stroke-miterlimit="1.45" shape-rendering="geometricPrecision" transform="matrix(1,0,0,1,-478,-36)" stroke-linecap="butt">
      <path fill="none" d="M825.5 501.25 L914 540 L825.5 578.75 L737 540 Z" clip-path="url(#clipPath2)"/>
      <text x="790.6578" xml:space="preserve" y="528.3119" clip-path="url(#clipPath2)" font-family="sans-serif" stroke="none">Номер хода</text>
      <text x="766.5256" xml:space="preserve" y="544.656" clip-path="url(#clipPath2)" font-family="sans-serif" stroke="none">game_move больше</text>
      <text x="809.8699" xml:space="preserve" y="561.0001" clip-path="url(#clipPath2)" font-family="sans-serif" stroke="none">num?</text>
    </g>
    <g fill="url(#linearGradient7)" text-rendering="geometricPrecision" shape-rendering="geometricPrecision" transform="matrix(1,0,0,1,-478,-36)" stroke="url(#linearGradient7)">
      <path d="M944 608.75 L1114 608.75 L1114 700.75 L944 700.75 Z" stroke="none" clip-path="url(#clipPath2)"/>
    </g>
    <g text-rendering="geometricPrecision" stroke-miterlimit="1.45" shape-rendering="geometricPrecision" transform="matrix(1,0,0,1,-478,-36)" stroke-linecap="butt">
      <path fill="none" d="M944 608.75 L1114 608.75 L1114 700.75 L944 700.75 Z" clip-path="url(#clipPath2)"/>
      <text x="992.8077" xml:space="preserve" y="643.0619" clip-path="url(#clipPath2)" font-family="sans-serif" stroke="none">Удалить ход</text>
      <text x="986.2557" xml:space="preserve" y="659.406" clip-path="url(#clipPath2)" font-family="sans-serif" stroke="none">game_move из</text>
      <text x="993.8937" xml:space="preserve" y="675.7501" clip-path="url(#clipPath2)" font-family="sans-serif" stroke="none">GameMoves</text>
    </g>
    <g fill="url(#linearGradient8)" text-rendering="geometricPrecision" shape-rendering="geometricPrecision" transform="matrix(1,0,0,1,-478,-36)" stroke="url(#linearGradient8)">
      <path d="M563.5 762 L733.5 762 L733.5 853 L723.5 863 L573.5 863 L563.5 853 Z" stroke="none" clip-path="url(#clipPath2)"/>
    </g>
    <g text-rendering="geometricPrecision" stroke-miterlimit="1.45" shape-rendering="geometricPrecision" transform="matrix(1,0,0,1,-478,-36)" stroke-linecap="butt">
      <path fill="none" d="M563.5 762 L733.5 762 L733.5 853 L723.5 863 L573.5 863 L563.5 853 Z" clip-path="url(#clipPath2)"/>
      <text x="605.9537" xml:space="preserve" y="817.156" clip-path="url(#clipPath2)" font-family="sans-serif" stroke="none">Конец цикла 1</text>
    </g>
    <g fill="url(#linearGradient9)" text-rendering="geometricPrecision" shape-rendering="geometricPrecision" transform="matrix(1,0,0,1,-478,-36)" stroke="url(#linearGradient9)">
      <rect x="563.5" width="170" height="92" y="893" clip-path="url(#clipPath2)" stroke="none"/>
    </g>
    <g text-rendering="geometricPrecision" stroke-miterlimit="1.45" shape-rendering="geometricPrecision" transform="matrix(1,0,0,1,-478,-36)" stroke-linecap="butt">
      <rect fill="none" x="563.5" width="170" height="92" y="893" clip-path="url(#clipPath2)"/>
      <path fill="none" d="M573.5 893 L573.5 985 M723.5 893 L723.5 985 M573.5 893 Z" clip-path="url(#clipPath2)"/>
      <text x="592.1596" xml:space="preserve" y="943.656" clip-path="url(#clipPath2)" font-family="sans-serif" stroke="none">delete_free_moves()</text>
    </g>
    <g fill="url(#linearGradient10)" text-rendering="geometricPrecision" shape-rendering="geometricPrecision" transform="matrix(1,0,0,1,-478,-36)" stroke="url(#linearGradient10)">
      <rect x="563.5" y="1015" clip-path="url(#clipPath2)" width="170" rx="38.75" ry="38.75" height="77.5" stroke="none"/>
    </g>
    <g text-rendering="geometricPrecision" stroke-miterlimit="1.45" shape-rendering="geometricPrecision" transform="matrix(1,0,0,1,-478,-36)" stroke-linecap="butt">
      <rect x="563.5" y="1015" clip-path="url(#clipPath2)" fill="none" width="170" rx="38.75" ry="38.75" height="77.5"/>
      <text x="630.1639" xml:space="preserve" y="1058.406" clip-path="url(#clipPath2)" font-family="sans-serif" stroke="none">Конец</text>
    </g>
    <g fill="url(#linearGradient11)" text-rendering="geometricPrecision" shape-rendering="geometricPrecision" transform="matrix(1,0,0,1,-478,-36)" stroke="url(#linearGradient11)">
      <rect x="792.75" width="91" height="101" y="888.5" clip-path="url(#clipPath2)" stroke="none"/>
    </g>
    <g text-rendering="geometricPrecision" stroke-miterlimit="1.45" shape-rendering="geometricPrecision" transform="matrix(1,0,0,1,-478,-36)" stroke-linecap="butt">
      <path fill="none" d="M804.125 888.5 L792.75 888.5 L792.75 989.5 L804.125 989.5" clip-path="url(#clipPath2)"/>
      <text x="811.2365" xml:space="preserve" y="927.3119" clip-path="url(#clipPath2)" font-family="sans-serif" stroke="none">Удаление ходов, не</text>
      <text x="811.2365" xml:space="preserve" y="943.656" clip-path="url(#clipPath2)" font-family="sans-serif" stroke="none">содержащихся в</text>
      <text x="811.2365" xml:space="preserve" y="960.0001" clip-path="url(#clipPath2)" font-family="sans-serif" stroke="none">шахматных партиях</text>
    </g>
    <g text-rendering="geometricPrecision" stroke-miterlimit="1.45" stroke-dasharray="6,2" shape-rendering="geometricPrecision" transform="matrix(1,0,0,1,-478,-36)" stroke-linecap="butt">
      <path fill="none" d="M733.0436 102 L793.9909 102" clip-path="url(#clipPath2)"/>
    </g>
    <g text-rendering="geometricPrecision" stroke-miterlimit="1.45" shape-rendering="geometricPrecision" transform="matrix(1,0,0,1,-478,-36)" stroke-linecap="butt">
      <path fill="none" d="M648 140.7449 L648 170.7684" clip-path="url(#clipPath2)"/>
      <path fill="none" d="M648 262.736 L648 292.7321" clip-path="url(#clipPath2)"/>
      <path fill="none" d="M648.2118 393.7624 L648.3378 423.8015" clip-path="url(#clipPath2)"/>
      <path fill="none" d="M736.9568 462.5 L825.5 462.5 L825.5 493.2878" clip-path="url(#clipPath2)"/>
      <path d="M825.5 501.2878 L830.5 489.2878 L825.5 492.2878 L820.5 489.2878 Z" clip-path="url(#clipPath2)" stroke="none"/>
      <text x="738.6428" xml:space="preserve" y="455.4143" clip-path="url(#clipPath2)" font-family="sans-serif" stroke="none">да</text>
      <path fill="none" d="M913.9847 540 L1029 540 L1029 600.7772" clip-path="url(#clipPath2)"/>
      <path d="M1029 608.7772 L1034 596.7772 L1029 599.7772 L1024 596.7772 Z" clip-path="url(#clipPath2)" stroke="none"/>
      <text x="912.694" xml:space="preserve" y="533.056" clip-path="url(#clipPath2)" font-family="sans-serif" stroke="none">да</text>
      <path fill="none" d="M1029 700.7816 L1029 728 L648 728 L648.2014 762.0393" clip-path="url(#clipPath2)"/>
      <path fill="none" d="M737.0101 540 L683.75 540 L683.75 728 L648.5 728 L648.5 762.0393" clip-path="url(#clipPath2)"/>
      <path fill="none" d="M559.9933 462.5 L493.5093 462.5 L493.5093 728 L648.5 728 L648.5 754.0081" clip-path="url(#clipPath2)"/>
      <path d="M648.5 762.0081 L653.5 750.0081 L648.5 753.0081 L643.5 750.0081 Z" clip-path="url(#clipPath2)" stroke="none"/>
      <path fill="none" d="M648.5 862.995 L648.5 893.0184" clip-path="url(#clipPath2)"/>
      <path fill="none" d="M648.5 984.9728 L648.5 1015.0292" clip-path="url(#clipPath2)"/>
      <path fill="none" stroke-dasharray="6,2" d="M733.5076 939 L792.7576 939" clip-path="url(#clipPath2)"/>
    </g>
  </g>
</svg>
