<?xml version="1.0" encoding="UTF-8"?><svg xmlns="http://www.w3.org/2000/svg" xmlns:xlink="http://www.w3.org/1999/xlink" fill-opacity="1" color-rendering="auto" color-interpolation="auto" text-rendering="auto" stroke="black" stroke-linecap="square" width="722" stroke-miterlimit="10" shape-rendering="auto" stroke-opacity="1" fill="black" stroke-dasharray="none" font-weight="normal" stroke-width="1" height="555" font-family="'Dialog'" font-style="normal" stroke-linejoin="miter" font-size="12px" stroke-dashoffset="0" image-rendering="auto">
  <!--Generated by ySVG 2.6-->
  <defs id="genericDefs"/>
  <g>
    <g fill="white" text-rendering="geometricPrecision" shape-rendering="geometricPrecision" transform="translate(-217,-92)" stroke="white">
      <rect x="217" width="722" height="555" y="92" clip-path="url(#clipPath2)" stroke="none"/>
    </g>
    <g text-rendering="geometricPrecision" shape-rendering="geometricPrecision" transform="matrix(0.9092,0,0,0.9295,43.8623,15)">
      <g clip-path="url(#clipPath3)">
        <svg xmlns:svg="http://www.w3.org/2000/svg" xmlns:sodipodi="http://sodipodi.sourceforge.net/DTD/sodipodi-0.dtd" xmlns:inkscape="http://www.inkscape.org/namespaces/inkscape" xmlns:dc="http://purl.org/dc/elements/1.1/" xmlns:cc="http://web.resource.org/cc/" xmlns:rdf="http://www.w3.org/1999/02/22-rdf-syntax-ns#" opacity="1" writing-mode="lr-tb" stop-color="rgb(0, 0, 0)" shape-rendering="auto" glyph-orientation-horizontal="0deg" color-profile="auto" lighting-color="rgb(255, 255, 255)" color="rgb(0, 0, 0)" font-weight="400" alignment-baseline="auto" font-style="normal" version="1.0" color-interpolation-filters="linearrgb" text-anchor="start" stroke-linecap="butt" color-interpolation="srgb" font-variant="normal" word-spacing="normal" fill-opacity="1" text-rendering="auto" clip-path="none" text-decoration="none" letter-spacing="normal" glyph-orientation-vertical="auto" display="inline" font-size-adjust="none" overflow="hidden" fill="rgb(0, 0, 0)" font-stretch="normal" stroke-dasharray="none" inkscape:version="0.45.1" id="svg1.svg2" stroke-miterlimit="4" stop-opacity="1" color-rendering="auto" font-size="12" sodipodi:docbase="C:\Daten\alberts\projects\yfx" pointer-events="visiblepainted" mask="none" direction="ltr" baseline-shift="baseline" sodipodi:docname="uml_actor.svg" enable-background="accumulate" fill-rule="nonzero" image-rendering="auto" stroke-dashoffset="0" inkscape:output_extension="org.inkscape.output.svg.inkscape" marker-end="none" width="41" clip="auto" cursor="auto" stroke="none" filter="none" visibility="visible" kerning="auto" stroke-width="1" font-family="&quot;Arial&quot;,&quot;Helvetica&quot;,sans-serif" flood-opacity="1" clip-rule="nonzero" src="none" height="68.997391" unicode-bidi="normal" sodipodi:version="0.32" stroke-linejoin="miter" stroke-opacity="1" flood-color="rgb(0, 0, 0)" dominant-baseline="auto" marker-start="none" marker-mid="none">
            
          <defs id="svg1.defs4">
            <clipPath clipPathUnits="userSpaceOnUse" id="clipPath1">
              <path d="M0 0 L722 0 L722 555 L0 555 L0 0 Z"/>
            </clipPath>
            <clipPath clipPathUnits="userSpaceOnUse" id="clipPath2">
              <path d="M217 92 L939 92 L939 647 L217 647 L217 92 Z"/>
            </clipPath>
            <clipPath clipPathUnits="userSpaceOnUse" id="clipPath3">
              <path d="M-48.245 -16.1381 L745.8976 -16.1381 L745.8976 580.9716 L-48.245 580.9716 L-48.245 -16.1381 Z"/>
            </clipPath>
          </defs>
            
  
          <metadata id="svg1.metadata7">
    
  </metadata>
            
          <g inkscape:groupmode="layer" id="svg1.layer1" transform="translate(-29.5,-42.959476)" inkscape:label="Ebene 1">
                
            <a id="svg1.a3142" transform="matrix(1.0873906,0,0,1,-4.4741999,0)">
                    
              <path transform="translate(11.586889,5.2908993)" style="fill:none;fill-rule:evenodd;stroke:#000000;stroke-width:1px;stroke-linecap:butt;stroke-linejoin:miter;stroke-opacity:1" sodipodi:cx="38.509369" sodipodi:cy="47.36993" sodipodi:rx="8.5197716" id="svg1.path2160" d="M 47.02914 47.36993 A 8.5197716 9.2013531 0 1 1  29.989597,47.36993 A 8.5197716 9.2013531 0 1 1  47.02914 47.36993 z" sodipodi:ry="9.2013531" sodipodi:type="arc"/>
                  
            </a>
                
            <path style="fill:none" sodipodi:cx="43.962021" sodipodi:cy="48.392303" d="M 47.71072 48.392303 A 3.7486994 0 0 1 1  40.213321,48.392303 A 3.7486994 0 0 1 1  47.71072 48.392303 z" id="svg1.path3134" sodipodi:rx="3.7486994" sodipodi:ry="0" sodipodi:type="arc"/>
                
            <path style="fill:none;fill-rule:evenodd;stroke:#000000;stroke-width:1.24319649px;stroke-linecap:butt;stroke-linejoin:miter;stroke-opacity:1" d="M 50,61.33709 C 50,91.363211 50,92.247838 50,92.247838" id="svg1.path3136"/>
                
            <path style="fill:none;fill-rule:evenodd;stroke:#000000;stroke-width:1px;stroke-linecap:butt;stroke-linejoin:miter;stroke-opacity:1" d="M 69.760668,72.362183 C 69.760668,72.362183 69.760668,72.362183 50.239332,72.362183 C 30.239332,72.362183 30.239332,72.362183 30.239332,72.362183 L 30.239332,72.362183" id="svg1.path3138"/>
                
            <path style="fill:none;fill-rule:evenodd;stroke:#000000;stroke-width:1px;stroke-linecap:butt;stroke-linejoin:miter;stroke-opacity:1" d="M 30,111.45687 C 30,111.45687 30,111.45687 50,92.013532 C 70,111.45687 70,111.45687 70,111.45687" id="svg1.path3140"/>
              
          </g>
          
        </svg>
      </g>
    </g>
    <g font-size="13px" stroke-linecap="butt" transform="matrix(1,0,0,1,-217,-92)" text-rendering="geometricPrecision" font-family="sans-serif" shape-rendering="geometricPrecision" stroke-miterlimit="1.45">
      <text x="234.312" xml:space="preserve" y="190.897" clip-path="url(#clipPath2)" stroke="none">Пользователь</text>
    </g>
    <g fill="white" text-rendering="geometricPrecision" shape-rendering="geometricPrecision" transform="matrix(1,0,0,1,-217,-92)" stroke="white">
      <rect x="452" width="92" height="42" y="129" clip-path="url(#clipPath2)" stroke="none"/>
    </g>
    <g text-rendering="geometricPrecision" stroke-miterlimit="1.45" shape-rendering="geometricPrecision" transform="matrix(1,0,0,1,-217,-92)" stroke-linecap="butt">
      <rect fill="none" x="452" width="92" height="42" y="129" clip-path="url(#clipPath2)"/>
      <text x="473.2198" xml:space="preserve" y="146.484" clip-path="url(#clipPath2)" font-family="sans-serif" stroke="none">Таблица</text>
      <text x="462.8937" xml:space="preserve" y="162.8281" clip-path="url(#clipPath2)" font-family="sans-serif" stroke="none">GameMoves</text>
    </g>
    <g fill="white" text-rendering="geometricPrecision" shape-rendering="geometricPrecision" transform="matrix(1,0,0,1,-217,-92)" stroke="white">
      <rect x="642" width="92" height="42" y="129" clip-path="url(#clipPath2)" stroke="none"/>
    </g>
    <g text-rendering="geometricPrecision" stroke-miterlimit="1.45" shape-rendering="geometricPrecision" transform="matrix(1,0,0,1,-217,-92)" stroke-linecap="butt">
      <rect fill="none" x="642" width="92" height="42" y="129" clip-path="url(#clipPath2)"/>
      <text x="664.8458" xml:space="preserve" y="154.656" clip-path="url(#clipPath2)" font-family="sans-serif" stroke="none">Триггер</text>
    </g>
    <g fill="white" text-rendering="geometricPrecision" shape-rendering="geometricPrecision" transform="matrix(1,0,0,1,-217,-92)" stroke="white">
      <rect x="268" width="23" height="334.6" y="237" clip-path="url(#clipPath2)" stroke="none"/>
    </g>
    <g text-rendering="geometricPrecision" stroke-miterlimit="1.45" shape-rendering="geometricPrecision" transform="matrix(1,0,0,1,-217,-92)" stroke-linecap="butt">
      <rect fill="none" x="268" width="23" height="334.6" y="237" clip-path="url(#clipPath2)"/>
    </g>
    <g fill="white" text-rendering="geometricPrecision" shape-rendering="geometricPrecision" transform="matrix(1,0,0,1,-217,-92)" stroke="white">
      <rect x="486.5" width="23" height="285.4" y="256.5" clip-path="url(#clipPath2)" stroke="none"/>
    </g>
    <g text-rendering="geometricPrecision" stroke-miterlimit="1.45" shape-rendering="geometricPrecision" transform="matrix(1,0,0,1,-217,-92)" stroke-linecap="butt">
      <rect fill="none" x="486.5" width="23" height="285.4" y="256.5" clip-path="url(#clipPath2)"/>
    </g>
    <g fill="white" text-rendering="geometricPrecision" shape-rendering="geometricPrecision" transform="matrix(1,0,0,1,-217,-92)" stroke="white">
      <rect x="676.5" width="23" height="223.064" y="304.5093" clip-path="url(#clipPath2)" stroke="none"/>
    </g>
    <g text-rendering="geometricPrecision" stroke-miterlimit="1.45" shape-rendering="geometricPrecision" transform="matrix(1,0,0,1,-217,-92)" stroke-linecap="butt">
      <rect fill="none" x="676.5" width="23" height="223.064" y="304.5093" clip-path="url(#clipPath2)"/>
    </g>
    <g fill="white" text-rendering="geometricPrecision" shape-rendering="geometricPrecision" transform="matrix(1,0,0,1,-217,-92)" stroke="white">
      <rect x="832" width="92" height="42" y="129" clip-path="url(#clipPath2)" stroke="none"/>
    </g>
    <g text-rendering="geometricPrecision" stroke-miterlimit="1.45" shape-rendering="geometricPrecision" transform="matrix(1,0,0,1,-217,-92)" stroke-linecap="butt">
      <rect fill="none" x="832" width="92" height="42" y="129" clip-path="url(#clipPath2)"/>
      <text x="853.2198" xml:space="preserve" y="146.484" clip-path="url(#clipPath2)" font-family="sans-serif" stroke="none">Таблица</text>
      <text x="859.6219" xml:space="preserve" y="162.8281" clip-path="url(#clipPath2)" font-family="sans-serif" stroke="none">Moves</text>
    </g>
    <g fill="white" text-rendering="geometricPrecision" shape-rendering="geometricPrecision" transform="matrix(1,0,0,1,-217,-92)" stroke="white">
      <rect x="866.5" width="23" height="72.308" y="427.528" clip-path="url(#clipPath2)" stroke="none"/>
    </g>
    <g text-rendering="geometricPrecision" stroke-miterlimit="1.45" shape-rendering="geometricPrecision" transform="matrix(1,0,0,1,-217,-92)" stroke-linecap="butt">
      <rect fill="none" x="866.5" width="23" height="72.308" y="427.528" clip-path="url(#clipPath2)"/>
    </g>
    <g fill="white" text-rendering="geometricPrecision" shape-rendering="geometricPrecision" transform="matrix(1,0,0,1,-217,-92)" stroke="white">
      <circle r="15" clip-path="url(#clipPath2)" cx="878" cy="616.164" stroke="none"/>
      <circle stroke-linecap="butt" clip-path="url(#clipPath2)" fill="none" r="15" cx="878" cy="616.164" stroke-miterlimit="1.45"/>
      <circle r="15" clip-path="url(#clipPath2)" cx="688" cy="616.164" stroke="none"/>
      <circle stroke-linecap="butt" clip-path="url(#clipPath2)" fill="none" r="15" cx="688" cy="616.164" stroke-miterlimit="1.45"/>
      <circle r="15" clip-path="url(#clipPath2)" cx="498" cy="616.164" stroke="none"/>
      <circle stroke-linecap="butt" clip-path="url(#clipPath2)" fill="none" r="15" cx="498" cy="616.164" stroke-miterlimit="1.45"/>
      <circle r="15" clip-path="url(#clipPath2)" cx="279.5" cy="616.164" stroke="none"/>
      <circle stroke-linecap="butt" clip-path="url(#clipPath2)" fill="none" r="15" cx="279.5" cy="616.164" stroke-miterlimit="1.45"/>
    </g>
    <g text-rendering="geometricPrecision" stroke-miterlimit="1.45" stroke-dasharray="6,2" shape-rendering="geometricPrecision" transform="matrix(1,0,0,1,-217,-92)" stroke-linecap="butt">
      <path fill="none" d="M279.5 201 L279.5 237" clip-path="url(#clipPath2)"/>
      <path fill="none" d="M498 171 L498 256.5" clip-path="url(#clipPath2)"/>
      <path fill="none" stroke-dasharray="none" d="M290.9978 258.9508 L478.5032 256.7308" clip-path="url(#clipPath2)"/>
      <path stroke-dasharray="none" d="M486.5027 256.6361 L474.4443 251.7785 L477.5033 256.7427 L474.5627 261.7778 Z" clip-path="url(#clipPath2)" stroke="none"/>
      <text x="314.5595" y="254.2775" clip-path="url(#clipPath2)" font-family="sans-serif" stroke-dasharray="none" stroke="none" xml:space="preserve">Запрос на удаление хода</text>
      <text x="323.5236" y="270.6216" clip-path="url(#clipPath2)" font-family="sans-serif" stroke-dasharray="none" stroke="none" xml:space="preserve">из шахматной партии</text>
      <path fill="none" stroke-dasharray="none" d="M509.498 264.2619 L537.808 264.2619 L537.808 283.2059 L517.4955 283.2059" clip-path="url(#clipPath2)"/>
      <path stroke-dasharray="none" d="M509.4955 283.2059 L521.4955 288.2059 L518.4955 283.2059 L521.4955 278.2059 Z" clip-path="url(#clipPath2)" stroke="none"/>
      <text x="524.0797" y="255.3979" clip-path="url(#clipPath2)" font-family="sans-serif" stroke-dasharray="none" stroke="none" xml:space="preserve">Удаление хода</text>
      <path fill="none" stroke-dasharray="none" d="M486.4869 535.2343 L298.9702 535.2343" clip-path="url(#clipPath2)"/>
      <path stroke-dasharray="none" d="M290.9702 535.2343 L302.9702 540.2343 L299.9702 535.2343 L302.9702 530.2343 Z" clip-path="url(#clipPath2)" stroke="none"/>
      <text x="323.1555" y="528.8343" clip-path="url(#clipPath2)" font-family="sans-serif" stroke-dasharray="none" stroke="none" xml:space="preserve">Завершение удаления</text>
      <path fill="none" d="M688 171 L688 304.5093" clip-path="url(#clipPath2)"/>
      <path fill="none" stroke-dasharray="none" d="M509.5233 304.5093 L668.5402 304.5093" clip-path="url(#clipPath2)"/>
      <path stroke-dasharray="none" d="M676.5402 304.5093 L664.5402 299.5093 L667.5402 304.5093 L664.5402 309.5093 Z" clip-path="url(#clipPath2)" stroke="none"/>
      <text x="558.65" y="300.1476" clip-path="url(#clipPath2)" font-family="sans-serif" stroke-dasharray="none" stroke="none" xml:space="preserve">Запуск триггера</text>
      <path fill="none" stroke-dasharray="none" d="M509.4637 385.7399 L668.5202 385.7399" clip-path="url(#clipPath2)"/>
      <path stroke-dasharray="none" d="M676.5202 385.7399 L664.5202 380.7399 L667.5202 385.7399 L664.5202 390.7399 Z" clip-path="url(#clipPath2)" stroke="none"/>
      <text x="555.7397" y="382.2239" clip-path="url(#clipPath2)" font-family="sans-serif" stroke-dasharray="none" stroke="none" xml:space="preserve">Завершение</text>
      <text x="565.2018" y="398.568" clip-path="url(#clipPath2)" font-family="sans-serif" stroke-dasharray="none" stroke="none" xml:space="preserve">удаления</text>
      <path fill="none" stroke-dasharray="none" d="M676.4913 335.0878 L517.525 335.0878" clip-path="url(#clipPath2)"/>
      <path stroke-dasharray="none" d="M509.525 335.0878 L521.525 340.0878 L518.525 335.0878 L521.525 330.0878 Z" clip-path="url(#clipPath2)" stroke="none"/>
      <text x="563.4138" y="331.5717" clip-path="url(#clipPath2)" font-family="sans-serif" stroke-dasharray="none" stroke="none" xml:space="preserve">Запрос на</text>
      <text x="546.2357" y="347.9158" clip-path="url(#clipPath2)" font-family="sans-serif" stroke-dasharray="none" stroke="none" xml:space="preserve">удаление ходов</text>
      <path fill="none" stroke-dasharray="none" d="M676.5215 517.5799 L517.5413 517.5799" clip-path="url(#clipPath2)"/>
      <path stroke-dasharray="none" d="M509.5413 517.5799 L521.5413 522.5799 L518.5413 517.5799 L521.5413 512.5799 Z" clip-path="url(#clipPath2)" stroke="none"/>
      <text x="532.3756" y="514.0639" clip-path="url(#clipPath2)" font-family="sans-serif" stroke-dasharray="none" stroke="none" xml:space="preserve">Завершение работы</text>
      <text x="566.9598" y="530.408" clip-path="url(#clipPath2)" font-family="sans-serif" stroke-dasharray="none" stroke="none" xml:space="preserve">триггера</text>
      <path fill="none" d="M878 171 L878 427.528" clip-path="url(#clipPath2)"/>
      <path fill="none" stroke-dasharray="none" d="M699.4904 427.528 L858.5381 427.528" clip-path="url(#clipPath2)"/>
      <path stroke-dasharray="none" d="M866.5381 427.528 L854.5381 422.528 L857.5381 427.528 L854.5381 432.528 Z" clip-path="url(#clipPath2)" stroke="none"/>
      <text x="724.0256" y="424.012" clip-path="url(#clipPath2)" font-family="sans-serif" stroke-dasharray="none" stroke="none" xml:space="preserve">Запрос на удаление</text>
      <text x="740.4957" y="440.3561" clip-path="url(#clipPath2)" font-family="sans-serif" stroke-dasharray="none" stroke="none" xml:space="preserve">лишних ходов</text>
      <path fill="none" stroke-dasharray="none" d="M866.5434 492.6199 L707.5252 492.6199" clip-path="url(#clipPath2)"/>
      <path stroke-dasharray="none" d="M699.5252 492.6199 L711.5252 497.6199 L708.5252 492.6199 L711.5252 487.6199 Z" clip-path="url(#clipPath2)" stroke="none"/>
      <text x="716.9184" y="483.4894" clip-path="url(#clipPath2)" font-family="sans-serif" stroke-dasharray="none" stroke="none" xml:space="preserve">Завершение удаления</text>
      <path fill="none" d="M878 499.836 L878 601.164" clip-path="url(#clipPath2)"/>
      <path fill="none" d="M688 527.5733 L688 601.164" clip-path="url(#clipPath2)"/>
      <path fill="none" d="M498 541.9 L498 601.164" clip-path="url(#clipPath2)"/>
      <path fill="none" d="M279.5 571.6 L279.5 601.164" clip-path="url(#clipPath2)"/>
    </g>
  </g>
</svg>
