<?xml version="1.0" encoding="UTF-8"?><svg xmlns="http://www.w3.org/2000/svg" xmlns:xlink="http://www.w3.org/1999/xlink" fill-opacity="1" color-rendering="auto" color-interpolation="auto" text-rendering="auto" stroke="black" stroke-linecap="square" width="431" stroke-miterlimit="10" shape-rendering="auto" stroke-opacity="1" fill="black" stroke-dasharray="none" font-weight="normal" stroke-width="1" height="716" font-family="'Dialog'" font-style="normal" stroke-linejoin="miter" font-size="12px" stroke-dashoffset="0" image-rendering="auto">
  <!--Generated by ySVG 2.6-->
  <defs id="genericDefs"/>
  <g>
    <defs id="defs1">
      <linearGradient x1="563" gradientUnits="userSpaceOnUse" x2="733" y1="63.25" y2="140.75" id="linearGradient1" spreadMethod="reflect">
        <stop stop-opacity="1" stop-color="white" offset="0%"/>
        <stop stop-opacity="1" stop-color="white" offset="100%"/>
      </linearGradient>
      <linearGradient x1="563" gradientUnits="userSpaceOnUse" x2="733" y1="170.75" y2="262.75" id="linearGradient2" spreadMethod="reflect">
        <stop stop-opacity="1" stop-color="white" offset="0%"/>
        <stop stop-opacity="1" stop-color="white" offset="100%"/>
      </linearGradient>
      <linearGradient x1="794" gradientUnits="userSpaceOnUse" x2="885" y1="51.5" y2="152.5" id="linearGradient3" spreadMethod="reflect">
        <stop stop-opacity="1" stop-color="white" offset="0%"/>
        <stop stop-opacity="1" stop-color="white" offset="100%"/>
      </linearGradient>
      <linearGradient x1="563" gradientUnits="userSpaceOnUse" x2="733" y1="292.75" y2="384.75" id="linearGradient4" spreadMethod="reflect">
        <stop stop-opacity="1" stop-color="white" offset="0%"/>
        <stop stop-opacity="1" stop-color="white" offset="100%"/>
      </linearGradient>
      <linearGradient x1="563" gradientUnits="userSpaceOnUse" x2="733" y1="414.75" y2="506.75" id="linearGradient5" spreadMethod="reflect">
        <stop stop-opacity="1" stop-color="white" offset="0%"/>
        <stop stop-opacity="1" stop-color="white" offset="100%"/>
      </linearGradient>
      <linearGradient x1="563" gradientUnits="userSpaceOnUse" x2="733" y1="536.75" y2="628.75" id="linearGradient6" spreadMethod="reflect">
        <stop stop-opacity="1" stop-color="white" offset="0%"/>
        <stop stop-opacity="1" stop-color="white" offset="100%"/>
      </linearGradient>
      <linearGradient x1="563" gradientUnits="userSpaceOnUse" x2="733" y1="658.75" y2="736.25" id="linearGradient7" spreadMethod="reflect">
        <stop stop-opacity="1" stop-color="white" offset="0%"/>
        <stop stop-opacity="1" stop-color="white" offset="100%"/>
      </linearGradient>
      <clipPath clipPathUnits="userSpaceOnUse" id="clipPath1">
        <path d="M0 0 L431 0 L431 716 L0 716 L0 0 Z"/>
      </clipPath>
      <clipPath clipPathUnits="userSpaceOnUse" id="clipPath2">
        <path d="M548 36 L979 36 L979 752 L548 752 L548 36 Z"/>
      </clipPath>
    </defs>
    <g fill="white" text-rendering="geometricPrecision" shape-rendering="geometricPrecision" transform="translate(-548,-36)" stroke="white">
      <rect x="548" width="431" height="716" y="36" clip-path="url(#clipPath2)" stroke="none"/>
    </g>
    <g fill="url(#linearGradient1)" text-rendering="geometricPrecision" shape-rendering="geometricPrecision" transform="matrix(1,0,0,1,-548,-36)" stroke="url(#linearGradient1)">
      <rect x="563" y="63.25" clip-path="url(#clipPath2)" width="170" rx="38.75" ry="38.75" height="77.5" stroke="none"/>
    </g>
    <g text-rendering="geometricPrecision" stroke-miterlimit="1.45" shape-rendering="geometricPrecision" transform="matrix(1,0,0,1,-548,-36)" stroke-linecap="butt">
      <rect x="563" y="63.25" clip-path="url(#clipPath2)" fill="none" width="170" rx="38.75" ry="38.75" height="77.5"/>
      <text x="626.0458" xml:space="preserve" y="106.656" clip-path="url(#clipPath2)" font-family="sans-serif" stroke="none">Начало</text>
    </g>
    <g fill="url(#linearGradient2)" text-rendering="geometricPrecision" shape-rendering="geometricPrecision" transform="matrix(1,0,0,1,-548,-36)" stroke="url(#linearGradient2)">
      <path d="M563 170.75 L733 170.75 L733 262.75 L563 262.75 Z" stroke="none" clip-path="url(#clipPath2)"/>
    </g>
    <g text-rendering="geometricPrecision" stroke-miterlimit="1.45" shape-rendering="geometricPrecision" transform="matrix(1,0,0,1,-548,-36)" stroke-linecap="butt">
      <path fill="none" d="M563 170.75 L733 170.75 L733 262.75 L563 262.75 Z" clip-path="url(#clipPath2)"/>
      <text x="619.4998" xml:space="preserve" y="188.7178" clip-path="url(#clipPath2)" font-family="sans-serif" stroke="none">Получить</text>
      <text x="610.1757" xml:space="preserve" y="205.0619" clip-path="url(#clipPath2)" font-family="sans-serif" stroke="none">значение PD</text>
      <text x="610.5837" xml:space="preserve" y="221.406" clip-path="url(#clipPath2)" font-family="sans-serif" stroke="none">вероятности</text>
      <text x="612.3718" xml:space="preserve" y="237.7502" clip-path="url(#clipPath2)" font-family="sans-serif" stroke="none">достижения</text>
      <text x="622.9438" xml:space="preserve" y="254.0943" clip-path="url(#clipPath2)" font-family="sans-serif" stroke="none">игроком</text>
    </g>
    <g fill="url(#linearGradient3)" text-rendering="geometricPrecision" shape-rendering="geometricPrecision" transform="matrix(1,0,0,1,-548,-36)" stroke="url(#linearGradient3)">
      <rect x="794" width="91" height="101" y="51.5" clip-path="url(#clipPath2)" stroke="none"/>
    </g>
    <g text-rendering="geometricPrecision" stroke-miterlimit="1.45" shape-rendering="geometricPrecision" transform="matrix(1,0,0,1,-548,-36)" stroke-linecap="butt">
      <path fill="none" d="M805.375 51.5 L794 51.5 L794 152.5 L805.375 152.5" clip-path="url(#clipPath2)"/>
      <text x="808.7635" xml:space="preserve" y="82.1399" clip-path="url(#clipPath2)" font-family="sans-serif" stroke="none">Триггер срабатывает</text>
      <text x="808.7635" xml:space="preserve" y="98.484" clip-path="url(#clipPath2)" font-family="sans-serif" stroke="none">после добавления</text>
      <text x="808.7635" xml:space="preserve" y="114.8281" clip-path="url(#clipPath2)" font-family="sans-serif" stroke="none">завершенной шахматной</text>
      <text x="808.7635" xml:space="preserve" y="131.1722" clip-path="url(#clipPath2)" font-family="sans-serif" stroke="none">партии в базу данных</text>
    </g>
    <g fill="url(#linearGradient4)" text-rendering="geometricPrecision" shape-rendering="geometricPrecision" transform="matrix(1,0,0,1,-548,-36)" stroke="url(#linearGradient4)">
      <path d="M563 292.75 L733 292.75 L733 384.75 L563 384.75 Z" stroke="none" clip-path="url(#clipPath2)"/>
    </g>
    <g text-rendering="geometricPrecision" stroke-miterlimit="1.45" shape-rendering="geometricPrecision" transform="matrix(1,0,0,1,-548,-36)" stroke-linecap="butt">
      <path fill="none" d="M563 292.75 L733 292.75 L733 384.75 L563 384.75 Z" clip-path="url(#clipPath2)"/>
      <text x="580.5775" xml:space="preserve" y="335.234" clip-path="url(#clipPath2)" font-family="sans-serif" stroke="none">Рассчитать изменение</text>
      <text x="598.6917" xml:space="preserve" y="351.5781" clip-path="url(#clipPath2)" font-family="sans-serif" stroke="none">рейтинга игрока</text>
    </g>
    <g fill="url(#linearGradient5)" text-rendering="geometricPrecision" shape-rendering="geometricPrecision" transform="matrix(1,0,0,1,-548,-36)" stroke="url(#linearGradient5)">
      <path d="M563 414.75 L733 414.75 L733 506.75 L563 506.75 Z" stroke="none" clip-path="url(#clipPath2)"/>
    </g>
    <g text-rendering="geometricPrecision" stroke-miterlimit="1.45" shape-rendering="geometricPrecision" transform="matrix(1,0,0,1,-548,-36)" stroke-linecap="butt">
      <path fill="none" d="M563 414.75 L733 414.75 L733 506.75 L563 506.75 Z" clip-path="url(#clipPath2)"/>
      <text x="587.8796" xml:space="preserve" y="457.234" clip-path="url(#clipPath2)" font-family="sans-serif" stroke="none">Найти игрока в базе</text>
      <text x="625.6619" xml:space="preserve" y="473.5781" clip-path="url(#clipPath2)" font-family="sans-serif" stroke="none">данных</text>
    </g>
    <g fill="url(#linearGradient6)" text-rendering="geometricPrecision" shape-rendering="geometricPrecision" transform="matrix(1,0,0,1,-548,-36)" stroke="url(#linearGradient6)">
      <path d="M563 536.75 L733 536.75 L733 628.75 L563 628.75 Z" stroke="none" clip-path="url(#clipPath2)"/>
    </g>
    <g text-rendering="geometricPrecision" stroke-miterlimit="1.45" shape-rendering="geometricPrecision" transform="matrix(1,0,0,1,-548,-36)" stroke-linecap="butt">
      <path fill="none" d="M563 536.75 L733 536.75 L733 628.75 L563 628.75 Z" clip-path="url(#clipPath2)"/>
      <text x="592.8656" xml:space="preserve" y="562.8898" clip-path="url(#clipPath2)" font-family="sans-serif" stroke="none">Изменить рейтинг</text>
      <text x="581.5076" xml:space="preserve" y="579.2339" clip-path="url(#clipPath2)" font-family="sans-serif" stroke="none">игрока в соответствии</text>
      <text x="571.5175" xml:space="preserve" y="595.5781" clip-path="url(#clipPath2)" font-family="sans-serif" stroke="none">с полученным значением</text>
      <text x="615.1017" xml:space="preserve" y="611.9222" clip-path="url(#clipPath2)" font-family="sans-serif" stroke="none">изменения</text>
    </g>
    <g fill="url(#linearGradient7)" text-rendering="geometricPrecision" shape-rendering="geometricPrecision" transform="matrix(1,0,0,1,-548,-36)" stroke="url(#linearGradient7)">
      <rect x="563" y="658.75" clip-path="url(#clipPath2)" width="170" rx="38.75" ry="38.75" height="77.5" stroke="none"/>
    </g>
    <g text-rendering="geometricPrecision" stroke-miterlimit="1.45" shape-rendering="geometricPrecision" transform="matrix(1,0,0,1,-548,-36)" stroke-linecap="butt">
      <rect x="563" y="658.75" clip-path="url(#clipPath2)" fill="none" width="170" rx="38.75" ry="38.75" height="77.5"/>
      <text x="629.6639" xml:space="preserve" y="702.156" clip-path="url(#clipPath2)" font-family="sans-serif" stroke="none">Конец</text>
    </g>
    <g text-rendering="geometricPrecision" stroke-miterlimit="1.45" shape-rendering="geometricPrecision" transform="matrix(1,0,0,1,-548,-36)" stroke-linecap="butt">
      <path fill="none" d="M648 140.7449 L648 170.7684" clip-path="url(#clipPath2)"/>
    </g>
    <g text-rendering="geometricPrecision" stroke-miterlimit="1.45" stroke-dasharray="6,2" shape-rendering="geometricPrecision" transform="matrix(1,0,0,1,-548,-36)" stroke-linecap="butt">
      <path fill="none" d="M733.0436 102 L793.9909 102" clip-path="url(#clipPath2)"/>
      <path fill="none" stroke-dasharray="none" d="M648 262.7681 L648 292.7824" clip-path="url(#clipPath2)"/>
      <path fill="none" stroke-dasharray="none" d="M648 384.7681 L648 414.7824" clip-path="url(#clipPath2)"/>
      <path fill="none" stroke-dasharray="none" d="M648 506.7681 L648 536.7824" clip-path="url(#clipPath2)"/>
      <path fill="none" stroke-dasharray="none" d="M648 628.7228 L648 658.7792" clip-path="url(#clipPath2)"/>
    </g>
  </g>
</svg>
