<?xml version="1.0" encoding="UTF-8"?><svg xmlns="http://www.w3.org/2000/svg" xmlns:xlink="http://www.w3.org/1999/xlink" fill-opacity="1" color-rendering="auto" color-interpolation="auto" text-rendering="auto" stroke="black" stroke-linecap="square" width="722" stroke-miterlimit="10" shape-rendering="auto" stroke-opacity="1" fill="black" stroke-dasharray="none" font-weight="normal" stroke-width="1" height="447" font-family="'Dialog'" font-style="normal" stroke-linejoin="miter" font-size="12px" stroke-dashoffset="0" image-rendering="auto">
  <!--Generated by ySVG 2.6-->
  <defs id="genericDefs"/>
  <g>
    <g fill="white" text-rendering="geometricPrecision" shape-rendering="geometricPrecision" transform="translate(-109,-42)" stroke="white">
      <rect x="109" width="722" height="447" y="42" clip-path="url(#clipPath2)" stroke="none"/>
    </g>
    <g text-rendering="geometricPrecision" shape-rendering="geometricPrecision" transform="matrix(0.9092,0,0,0.9295,43.8623,15)">
      <g clip-path="url(#clipPath3)">
        <svg xmlns:svg="http://www.w3.org/2000/svg" xmlns:sodipodi="http://sodipodi.sourceforge.net/DTD/sodipodi-0.dtd" xmlns:inkscape="http://www.inkscape.org/namespaces/inkscape" xmlns:dc="http://purl.org/dc/elements/1.1/" xmlns:cc="http://web.resource.org/cc/" xmlns:rdf="http://www.w3.org/1999/02/22-rdf-syntax-ns#" opacity="1" writing-mode="lr-tb" stop-color="rgb(0, 0, 0)" shape-rendering="auto" glyph-orientation-horizontal="0deg" color-profile="auto" lighting-color="rgb(255, 255, 255)" color="rgb(0, 0, 0)" font-weight="400" alignment-baseline="auto" font-style="normal" version="1.0" color-interpolation-filters="linearrgb" text-anchor="start" stroke-linecap="butt" color-interpolation="srgb" font-variant="normal" word-spacing="normal" fill-opacity="1" text-rendering="auto" clip-path="none" text-decoration="none" letter-spacing="normal" glyph-orientation-vertical="auto" display="inline" font-size-adjust="none" overflow="hidden" fill="rgb(0, 0, 0)" font-stretch="normal" stroke-dasharray="none" inkscape:version="0.45.1" id="svg1.svg2" stroke-miterlimit="4" stop-opacity="1" color-rendering="auto" font-size="12" sodipodi:docbase="C:\Daten\alberts\projects\yfx" pointer-events="visiblepainted" mask="none" direction="ltr" baseline-shift="baseline" sodipodi:docname="uml_actor.svg" enable-background="accumulate" fill-rule="nonzero" image-rendering="auto" stroke-dashoffset="0" inkscape:output_extension="org.inkscape.output.svg.inkscape" marker-end="none" width="41" clip="auto" cursor="auto" stroke="none" filter="none" visibility="visible" kerning="auto" stroke-width="1" font-family="&quot;Arial&quot;,&quot;Helvetica&quot;,sans-serif" flood-opacity="1" clip-rule="nonzero" src="none" height="68.997391" unicode-bidi="normal" sodipodi:version="0.32" stroke-linejoin="miter" stroke-opacity="1" flood-color="rgb(0, 0, 0)" dominant-baseline="auto" marker-start="none" marker-mid="none">
            
          <defs id="svg1.defs4">
            <clipPath clipPathUnits="userSpaceOnUse" id="clipPath1">
              <path d="M0 0 L722 0 L722 447 L0 447 L0 0 Z"/>
            </clipPath>
            <clipPath clipPathUnits="userSpaceOnUse" id="clipPath2">
              <path d="M109 42 L831 42 L831 489 L109 489 L109 42 Z"/>
            </clipPath>
            <clipPath clipPathUnits="userSpaceOnUse" id="clipPath3">
              <path d="M-48.245 -16.1381 L745.8976 -16.1381 L745.8976 464.7773 L-48.245 464.7773 L-48.245 -16.1381 Z"/>
            </clipPath>
          </defs>
            
  
          <metadata id="svg1.metadata7">
    
  </metadata>
            
          <g inkscape:groupmode="layer" id="svg1.layer1" transform="translate(-29.5,-42.959476)" inkscape:label="Ebene 1">
                
            <a id="svg1.a3142" transform="matrix(1.0873906,0,0,1,-4.4741999,0)">
                    
              <path transform="translate(11.586889,5.2908993)" style="fill:none;fill-rule:evenodd;stroke:#000000;stroke-width:1px;stroke-linecap:butt;stroke-linejoin:miter;stroke-opacity:1" sodipodi:cx="38.509369" sodipodi:cy="47.36993" sodipodi:rx="8.5197716" id="svg1.path2160" d="M 47.02914 47.36993 A 8.5197716 9.2013531 0 1 1  29.989597,47.36993 A 8.5197716 9.2013531 0 1 1  47.02914 47.36993 z" sodipodi:ry="9.2013531" sodipodi:type="arc"/>
                  
            </a>
                
            <path style="fill:none" sodipodi:cx="43.962021" sodipodi:cy="48.392303" d="M 47.71072 48.392303 A 3.7486994 0 0 1 1  40.213321,48.392303 A 3.7486994 0 0 1 1  47.71072 48.392303 z" id="svg1.path3134" sodipodi:rx="3.7486994" sodipodi:ry="0" sodipodi:type="arc"/>
                
            <path style="fill:none;fill-rule:evenodd;stroke:#000000;stroke-width:1.24319649px;stroke-linecap:butt;stroke-linejoin:miter;stroke-opacity:1" d="M 50,61.33709 C 50,91.363211 50,92.247838 50,92.247838" id="svg1.path3136"/>
                
            <path style="fill:none;fill-rule:evenodd;stroke:#000000;stroke-width:1px;stroke-linecap:butt;stroke-linejoin:miter;stroke-opacity:1" d="M 69.760668,72.362183 C 69.760668,72.362183 69.760668,72.362183 50.239332,72.362183 C 30.239332,72.362183 30.239332,72.362183 30.239332,72.362183 L 30.239332,72.362183" id="svg1.path3138"/>
                
            <path style="fill:none;fill-rule:evenodd;stroke:#000000;stroke-width:1px;stroke-linecap:butt;stroke-linejoin:miter;stroke-opacity:1" d="M 30,111.45687 C 30,111.45687 30,111.45687 50,92.013532 C 70,111.45687 70,111.45687 70,111.45687" id="svg1.path3140"/>
              
          </g>
          
        </svg>
      </g>
    </g>
    <g font-size="13px" stroke-linecap="butt" transform="matrix(1,0,0,1,-109,-42)" text-rendering="geometricPrecision" font-family="sans-serif" shape-rendering="geometricPrecision" stroke-miterlimit="1.45">
      <text x="126.312" xml:space="preserve" y="140.897" clip-path="url(#clipPath2)" stroke="none">Пользователь</text>
    </g>
    <g fill="white" text-rendering="geometricPrecision" shape-rendering="geometricPrecision" transform="matrix(1,0,0,1,-109,-42)" stroke="white">
      <rect x="344" width="92" height="42" y="79" clip-path="url(#clipPath2)" stroke="none"/>
    </g>
    <g text-rendering="geometricPrecision" stroke-miterlimit="1.45" shape-rendering="geometricPrecision" transform="matrix(1,0,0,1,-109,-42)" stroke-linecap="butt">
      <rect fill="none" x="344" width="92" height="42" y="79" clip-path="url(#clipPath2)"/>
      <text x="365.2198" xml:space="preserve" y="96.484" clip-path="url(#clipPath2)" font-family="sans-serif" stroke="none">Таблица</text>
      <text x="370.3979" xml:space="preserve" y="112.8281" clip-path="url(#clipPath2)" font-family="sans-serif" stroke="none">Games</text>
    </g>
    <g fill="white" text-rendering="geometricPrecision" shape-rendering="geometricPrecision" transform="matrix(1,0,0,1,-109,-42)" stroke="white">
      <rect x="534" width="92" height="42" y="79" clip-path="url(#clipPath2)" stroke="none"/>
    </g>
    <g text-rendering="geometricPrecision" stroke-miterlimit="1.45" shape-rendering="geometricPrecision" transform="matrix(1,0,0,1,-109,-42)" stroke-linecap="butt">
      <rect fill="none" x="534" width="92" height="42" y="79" clip-path="url(#clipPath2)"/>
      <text x="556.8458" xml:space="preserve" y="104.656" clip-path="url(#clipPath2)" font-family="sans-serif" stroke="none">Триггер</text>
    </g>
    <g fill="white" text-rendering="geometricPrecision" shape-rendering="geometricPrecision" transform="matrix(1,0,0,1,-109,-42)" stroke="white">
      <rect x="160" width="23" height="187" y="187" clip-path="url(#clipPath2)" stroke="none"/>
    </g>
    <g text-rendering="geometricPrecision" stroke-miterlimit="1.45" shape-rendering="geometricPrecision" transform="matrix(1,0,0,1,-109,-42)" stroke-linecap="butt">
      <rect fill="none" x="160" width="23" height="187" y="187" clip-path="url(#clipPath2)"/>
    </g>
    <g fill="white" text-rendering="geometricPrecision" shape-rendering="geometricPrecision" transform="matrix(1,0,0,1,-109,-42)" stroke="white">
      <rect x="378.5" width="23" height="141.5" y="206.5" clip-path="url(#clipPath2)" stroke="none"/>
    </g>
    <g text-rendering="geometricPrecision" stroke-miterlimit="1.45" shape-rendering="geometricPrecision" transform="matrix(1,0,0,1,-109,-42)" stroke-linecap="butt">
      <rect fill="none" x="378.5" width="23" height="141.5" y="206.5" clip-path="url(#clipPath2)"/>
    </g>
    <g fill="white" text-rendering="geometricPrecision" shape-rendering="geometricPrecision" transform="matrix(1,0,0,1,-109,-42)" stroke="white">
      <rect x="568.5" width="23" height="87.864" y="244.136" clip-path="url(#clipPath2)" stroke="none"/>
    </g>
    <g text-rendering="geometricPrecision" stroke-miterlimit="1.45" shape-rendering="geometricPrecision" transform="matrix(1,0,0,1,-109,-42)" stroke-linecap="butt">
      <rect fill="none" x="568.5" width="23" height="87.864" y="244.136" clip-path="url(#clipPath2)"/>
    </g>
    <g fill="white" text-rendering="geometricPrecision" shape-rendering="geometricPrecision" transform="matrix(1,0,0,1,-109,-42)" stroke="white">
      <rect x="724" width="92" height="42" y="79" clip-path="url(#clipPath2)" stroke="none"/>
    </g>
    <g text-rendering="geometricPrecision" stroke-miterlimit="1.45" shape-rendering="geometricPrecision" transform="matrix(1,0,0,1,-109,-42)" stroke-linecap="butt">
      <rect fill="none" x="724" width="92" height="42" y="79" clip-path="url(#clipPath2)"/>
      <text x="745.2198" xml:space="preserve" y="96.484" clip-path="url(#clipPath2)" font-family="sans-serif" stroke="none">Таблица</text>
      <text x="749.6599" xml:space="preserve" y="112.8281" clip-path="url(#clipPath2)" font-family="sans-serif" stroke="none">Players</text>
    </g>
    <g fill="white" text-rendering="geometricPrecision" shape-rendering="geometricPrecision" transform="matrix(1,0,0,1,-109,-42)" stroke="white">
      <rect x="758.5" width="23" height="72.308" y="248.088" clip-path="url(#clipPath2)" stroke="none"/>
    </g>
    <g text-rendering="geometricPrecision" stroke-miterlimit="1.45" shape-rendering="geometricPrecision" transform="matrix(1,0,0,1,-109,-42)" stroke-linecap="butt">
      <rect fill="none" x="758.5" width="23" height="72.308" y="248.088" clip-path="url(#clipPath2)"/>
    </g>
    <g fill="white" text-rendering="geometricPrecision" shape-rendering="geometricPrecision" transform="matrix(1,0,0,1,-109,-42)" stroke="white">
      <circle r="15" clip-path="url(#clipPath2)" cx="770" cy="459" stroke="none"/>
      <circle stroke-linecap="butt" clip-path="url(#clipPath2)" fill="none" r="15" cx="770" cy="459" stroke-miterlimit="1.45"/>
      <circle r="15" clip-path="url(#clipPath2)" cx="580" cy="459" stroke="none"/>
      <circle stroke-linecap="butt" clip-path="url(#clipPath2)" fill="none" r="15" cx="580" cy="459" stroke-miterlimit="1.45"/>
      <circle r="15" clip-path="url(#clipPath2)" cx="390" cy="459" stroke="none"/>
      <circle stroke-linecap="butt" clip-path="url(#clipPath2)" fill="none" r="15" cx="390" cy="459" stroke-miterlimit="1.45"/>
      <circle r="15" clip-path="url(#clipPath2)" cx="171.5" cy="459" stroke="none"/>
      <circle stroke-linecap="butt" clip-path="url(#clipPath2)" fill="none" r="15" cx="171.5" cy="459" stroke-miterlimit="1.45"/>
    </g>
    <g text-rendering="geometricPrecision" stroke-miterlimit="1.45" stroke-dasharray="6,2" shape-rendering="geometricPrecision" transform="matrix(1,0,0,1,-109,-42)" stroke-linecap="butt">
      <path fill="none" d="M171.5 151 L171.5 187" clip-path="url(#clipPath2)"/>
      <path fill="none" d="M390 121 L390 206.5" clip-path="url(#clipPath2)"/>
      <path fill="none" stroke-dasharray="none" d="M182.9905 206.5 L370.5023 206.5" clip-path="url(#clipPath2)"/>
      <path stroke-dasharray="none" d="M378.5023 206.5 L366.5023 201.5 L369.5023 206.5 L366.5023 211.5 Z" clip-path="url(#clipPath2)" stroke="none"/>
      <text x="243.4371" y="202.984" clip-path="url(#clipPath2)" font-family="sans-serif" stroke-dasharray="none" stroke="none" xml:space="preserve">Запрос на</text>
      <text x="214.6429" y="219.3281" clip-path="url(#clipPath2)" font-family="sans-serif" stroke-dasharray="none" stroke="none" xml:space="preserve">добавление партии</text>
      <path fill="none" stroke-dasharray="none" d="M409.4925 231.6129 L427.126 231.6129 L427.126 211.6449 L401.4665 211.6449" clip-path="url(#clipPath2)"/>
      <path stroke-dasharray="none" d="M401.4925 231.6129 L413.4925 236.6129 L410.4925 231.6129 L413.4925 226.6129 Z" clip-path="url(#clipPath2)" stroke="none"/>
      <text x="421.0178" y="187.9529" clip-path="url(#clipPath2)" font-family="sans-serif" stroke-dasharray="none" stroke="none" xml:space="preserve">Добавление</text>
      <text x="435.7539" y="204.297" clip-path="url(#clipPath2)" font-family="sans-serif" stroke-dasharray="none" stroke="none" xml:space="preserve">партии</text>
      <path fill="none" stroke-dasharray="none" d="M378.4801 337 L191.0087 337" clip-path="url(#clipPath2)"/>
      <path stroke-dasharray="none" d="M183.0087 337 L195.0087 342 L192.0087 337 L195.0087 332 Z" clip-path="url(#clipPath2)" stroke="none"/>
      <text x="243.4897" y="333.484" clip-path="url(#clipPath2)" font-family="sans-serif" stroke-dasharray="none" stroke="none" xml:space="preserve">Завершение</text>
      <text x="245.3318" y="349.8281" clip-path="url(#clipPath2)" font-family="sans-serif" stroke-dasharray="none" stroke="none" xml:space="preserve">добавления</text>
      <path fill="none" d="M580 121 L580 244.136" clip-path="url(#clipPath2)"/>
      <path fill="none" stroke-dasharray="none" d="M401.5267 244.136 L560.5404 244.136" clip-path="url(#clipPath2)"/>
      <path stroke-dasharray="none" d="M568.5404 244.136 L556.5404 239.136 L559.5404 244.136 L556.5404 249.136 Z" clip-path="url(#clipPath2)" stroke="none"/>
      <text x="466.4059" y="240.62" clip-path="url(#clipPath2)" font-family="sans-serif" stroke-dasharray="none" stroke="none" xml:space="preserve">Вызов</text>
      <text x="458.9598" y="256.9641" clip-path="url(#clipPath2)" font-family="sans-serif" stroke-dasharray="none" stroke="none" xml:space="preserve">триггера</text>
      <path fill="none" stroke-dasharray="none" d="M568.4716 322.8316 L409.534 322.8316" clip-path="url(#clipPath2)"/>
      <path stroke-dasharray="none" d="M401.534 322.8316 L413.534 327.8316 L410.534 322.8316 L413.534 317.8316 Z" clip-path="url(#clipPath2)" stroke="none"/>
      <text x="447.7397" y="319.3156" clip-path="url(#clipPath2)" font-family="sans-serif" stroke-dasharray="none" stroke="none" xml:space="preserve">Завершение</text>
      <text x="435.5957" y="335.6597" clip-path="url(#clipPath2)" font-family="sans-serif" stroke-dasharray="none" stroke="none" xml:space="preserve">работы триггера</text>
      <path fill="none" d="M770 121 L770 248.088" clip-path="url(#clipPath2)"/>
      <path fill="none" stroke-dasharray="none" d="M591.4892 248.7202 L750.494 248.7202" clip-path="url(#clipPath2)"/>
      <path stroke-dasharray="none" d="M758.494 248.7202 L746.494 243.7202 L749.494 248.7202 L746.494 253.7202 Z" clip-path="url(#clipPath2)" stroke="none"/>
      <text x="607.8055" y="245.2042" clip-path="url(#clipPath2)" font-family="sans-serif" stroke-dasharray="none" stroke="none" xml:space="preserve">Запрос на обновление</text>
      <text x="602.4655" y="261.5483" clip-path="url(#clipPath2)" font-family="sans-serif" stroke-dasharray="none" stroke="none" xml:space="preserve">информации об игроках</text>
      <path fill="none" stroke-dasharray="none" d="M758.4625 310.0663 L599.4628 310.0663" clip-path="url(#clipPath2)"/>
      <path stroke-dasharray="none" d="M591.4628 310.0663 L603.4628 315.0663 L600.4628 310.0663 L603.4628 305.0663 Z" clip-path="url(#clipPath2)" stroke="none"/>
      <text x="637.7397" y="306.5503" clip-path="url(#clipPath2)" font-family="sans-serif" stroke-dasharray="none" stroke="none" xml:space="preserve">Завершение</text>
      <text x="638.9818" y="322.8944" clip-path="url(#clipPath2)" font-family="sans-serif" stroke-dasharray="none" stroke="none" xml:space="preserve">обновления</text>
      <path fill="none" d="M770 320.396 L770 444" clip-path="url(#clipPath2)"/>
      <path fill="none" d="M580 332 L580 444" clip-path="url(#clipPath2)"/>
      <path fill="none" d="M390 348 L390 444" clip-path="url(#clipPath2)"/>
      <path fill="none" d="M171.5 374 L171.5 444" clip-path="url(#clipPath2)"/>
    </g>
  </g>
</svg>
