<?xml version="1.0" encoding="UTF-8"?><svg xmlns="http://www.w3.org/2000/svg" xmlns:xlink="http://www.w3.org/1999/xlink" fill-opacity="1" color-rendering="auto" color-interpolation="auto" text-rendering="auto" stroke="black" stroke-linecap="square" width="869" stroke-miterlimit="10" shape-rendering="auto" stroke-opacity="1" fill="black" stroke-dasharray="none" font-weight="normal" stroke-width="1" height="493" font-family="'Dialog'" font-style="normal" stroke-linejoin="miter" font-size="12px" stroke-dashoffset="0" image-rendering="auto">
  <!--Generated by ySVG 2.6-->
  <defs id="genericDefs"/>
  <g>
    <g fill="white" text-rendering="geometricPrecision" shape-rendering="geometricPrecision" transform="translate(-67,-53)" stroke="white">
      <rect x="67" width="869" height="493" y="53" clip-path="url(#clipPath2)" stroke="none"/>
    </g>
    <g text-rendering="geometricPrecision" shape-rendering="geometricPrecision" transform="matrix(0.8109,0,0,0.8859,213.4772,182.925)">
      <g clip-path="url(#clipPath3)">
        <svg xmlns:svg="http://www.w3.org/2000/svg" xmlns:sodipodi="http://sodipodi.sourceforge.net/DTD/sodipodi-0.dtd" xmlns:inkscape="http://www.inkscape.org/namespaces/inkscape" xmlns:dc="http://purl.org/dc/elements/1.1/" xmlns:cc="http://web.resource.org/cc/" xmlns:rdf="http://www.w3.org/1999/02/22-rdf-syntax-ns#" opacity="1" writing-mode="lr-tb" stop-color="rgb(0, 0, 0)" shape-rendering="auto" glyph-orientation-horizontal="0deg" color-profile="auto" lighting-color="rgb(255, 255, 255)" color="rgb(0, 0, 0)" font-weight="400" alignment-baseline="auto" font-style="normal" version="1.0" color-interpolation-filters="linearrgb" text-anchor="start" stroke-linecap="butt" color-interpolation="srgb" font-variant="normal" word-spacing="normal" fill-opacity="1" text-rendering="auto" clip-path="none" text-decoration="none" letter-spacing="normal" glyph-orientation-vertical="auto" display="inline" font-size-adjust="none" overflow="hidden" fill="rgb(0, 0, 0)" font-stretch="normal" stroke-dasharray="none" inkscape:version="0.45.1" id="svg1.svg2" stroke-miterlimit="4" stop-opacity="1" color-rendering="auto" font-size="12" sodipodi:docbase="C:\Daten\alberts\projects\yfx" pointer-events="visiblepainted" mask="none" direction="ltr" baseline-shift="baseline" sodipodi:docname="uml_actor.svg" enable-background="accumulate" fill-rule="nonzero" image-rendering="auto" stroke-dashoffset="0" inkscape:output_extension="org.inkscape.output.svg.inkscape" marker-end="none" width="41" clip="auto" cursor="auto" stroke="none" filter="none" visibility="visible" kerning="auto" stroke-width="1" font-family="&quot;Arial&quot;,&quot;Helvetica&quot;,sans-serif" flood-opacity="1" clip-rule="nonzero" src="none" height="68.997391" unicode-bidi="normal" sodipodi:version="0.32" stroke-linejoin="miter" stroke-opacity="1" flood-color="rgb(0, 0, 0)" dominant-baseline="auto" marker-start="none" marker-mid="none">
            
          <defs id="svg1.defs4">
            <clipPath clipPathUnits="userSpaceOnUse" id="clipPath1">
              <path d="M0 0 L869 0 L869 493 L0 493 L0 0 Z"/>
            </clipPath>
            <clipPath clipPathUnits="userSpaceOnUse" id="clipPath2">
              <path d="M67 53 L936 53 L936 546 L67 546 L67 53 Z"/>
            </clipPath>
            <clipPath clipPathUnits="userSpaceOnUse" id="clipPath3">
              <path d="M-263.2695 -206.483 L808.4197 -206.483 L808.4197 350.0081 L-263.2695 350.0081 L-263.2695 -206.483 Z"/>
            </clipPath>
            <clipPath clipPathUnits="userSpaceOnUse" id="clipPath4">
              <path d="M-263.2695 -433.0302 L808.4197 -433.0302 L808.4197 123.4609 L-263.2695 123.4609 L-263.2695 -433.0302 Z"/>
            </clipPath>
            <clipPath clipPathUnits="userSpaceOnUse" id="clipPath5">
              <path d="M-263.2695 -44.6152 L808.4197 -44.6152 L808.4197 511.8759 L-263.2695 511.8759 L-263.2695 -44.6152 Z"/>
            </clipPath>
            <clipPath clipPathUnits="userSpaceOnUse" id="clipPath6">
              <path d="M-759.3229 -359.9978 L312.3664 -359.9978 L312.3664 196.4933 L-759.3229 196.4933 L-759.3229 -359.9978 Z"/>
            </clipPath>
          </defs>
            
  
          <metadata id="svg1.metadata7">
    
  </metadata>
            
          <g inkscape:groupmode="layer" id="svg1.layer1" transform="translate(-29.5,-42.959476)" inkscape:label="Ebene 1">
                
            <a id="svg1.a3142" transform="matrix(1.0873906,0,0,1,-4.4741999,0)">
                    
              <path transform="translate(11.586889,5.2908993)" style="fill:none;fill-rule:evenodd;stroke:#000000;stroke-width:1px;stroke-linecap:butt;stroke-linejoin:miter;stroke-opacity:1" sodipodi:cx="38.509369" sodipodi:cy="47.36993" sodipodi:rx="8.5197716" id="svg1.path2160" d="M 47.02914 47.36993 A 8.5197716 9.2013531 0 1 1  29.989597,47.36993 A 8.5197716 9.2013531 0 1 1  47.02914 47.36993 z" sodipodi:ry="9.2013531" sodipodi:type="arc"/>
                  
            </a>
                
            <path style="fill:none" sodipodi:cx="43.962021" sodipodi:cy="48.392303" d="M 47.71072 48.392303 A 3.7486994 0 0 1 1  40.213321,48.392303 A 3.7486994 0 0 1 1  47.71072 48.392303 z" id="svg1.path3134" sodipodi:rx="3.7486994" sodipodi:ry="0" sodipodi:type="arc"/>
                
            <path style="fill:none;fill-rule:evenodd;stroke:#000000;stroke-width:1.24319649px;stroke-linecap:butt;stroke-linejoin:miter;stroke-opacity:1" d="M 50,61.33709 C 50,91.363211 50,92.247838 50,92.247838" id="svg1.path3136"/>
                
            <path style="fill:none;fill-rule:evenodd;stroke:#000000;stroke-width:1px;stroke-linecap:butt;stroke-linejoin:miter;stroke-opacity:1" d="M 69.760668,72.362183 C 69.760668,72.362183 69.760668,72.362183 50.239332,72.362183 C 30.239332,72.362183 30.239332,72.362183 30.239332,72.362183 L 30.239332,72.362183" id="svg1.path3138"/>
                
            <path style="fill:none;fill-rule:evenodd;stroke:#000000;stroke-width:1px;stroke-linecap:butt;stroke-linejoin:miter;stroke-opacity:1" d="M 30,111.45687 C 30,111.45687 30,111.45687 50,92.013532 C 70,111.45687 70,111.45687 70,111.45687" id="svg1.path3140"/>
              
          </g>
          
        </svg>
      </g>
    </g>
    <g font-size="13px" stroke-linecap="butt" transform="matrix(1,0,0,1,-67,-53)" text-rendering="geometricPrecision" font-family="sans-serif" shape-rendering="geometricPrecision" stroke-miterlimit="1.45">
      <text x="253.7515" xml:space="preserve" y="316.822" clip-path="url(#clipPath2)" stroke="none">Наблюдатель</text>
    </g>
    <g text-rendering="geometricPrecision" shape-rendering="geometricPrecision" transform="matrix(0.8109,0,0,0.8859,213.4772,383.625)">
      <g clip-path="url(#clipPath4)">
        <svg xmlns:svg="http://www.w3.org/2000/svg" xmlns:sodipodi="http://sodipodi.sourceforge.net/DTD/sodipodi-0.dtd" xmlns:inkscape="http://www.inkscape.org/namespaces/inkscape" xmlns:dc="http://purl.org/dc/elements/1.1/" xmlns:cc="http://web.resource.org/cc/" xmlns:rdf="http://www.w3.org/1999/02/22-rdf-syntax-ns#" opacity="1" writing-mode="lr-tb" stop-color="rgb(0, 0, 0)" shape-rendering="auto" glyph-orientation-horizontal="0deg" color-profile="auto" lighting-color="rgb(255, 255, 255)" color="rgb(0, 0, 0)" font-weight="400" alignment-baseline="auto" font-style="normal" version="1.0" color-interpolation-filters="linearrgb" text-anchor="start" stroke-linecap="butt" color-interpolation="srgb" font-variant="normal" word-spacing="normal" fill-opacity="1" text-rendering="auto" clip-path="none" text-decoration="none" letter-spacing="normal" glyph-orientation-vertical="auto" display="inline" font-size-adjust="none" overflow="hidden" fill="rgb(0, 0, 0)" font-stretch="normal" stroke-dasharray="none" inkscape:version="0.45.1" id="svg2.svg2" stroke-miterlimit="4" stop-opacity="1" color-rendering="auto" font-size="12" sodipodi:docbase="C:\Daten\alberts\projects\yfx" pointer-events="visiblepainted" mask="none" direction="ltr" baseline-shift="baseline" sodipodi:docname="uml_actor.svg" enable-background="accumulate" fill-rule="nonzero" image-rendering="auto" stroke-dashoffset="0" inkscape:output_extension="org.inkscape.output.svg.inkscape" marker-end="none" width="41" clip="auto" cursor="auto" stroke="none" filter="none" visibility="visible" kerning="auto" stroke-width="1" font-family="&quot;Arial&quot;,&quot;Helvetica&quot;,sans-serif" flood-opacity="1" clip-rule="nonzero" src="none" height="68.997391" unicode-bidi="normal" sodipodi:version="0.32" stroke-linejoin="miter" stroke-opacity="1" flood-color="rgb(0, 0, 0)" dominant-baseline="auto" marker-start="none" marker-mid="none">
            
          <defs id="svg2.defs4"/>
            
  
          <metadata id="svg2.metadata7">
    
  </metadata>
            
          <g inkscape:groupmode="layer" id="svg2.layer1" transform="translate(-29.5,-42.959476)" inkscape:label="Ebene 1">
                
            <a id="svg2.a3142" transform="matrix(1.0873906,0,0,1,-4.4741999,0)">
                    
              <path transform="translate(11.586889,5.2908993)" style="fill:none;fill-rule:evenodd;stroke:#000000;stroke-width:1px;stroke-linecap:butt;stroke-linejoin:miter;stroke-opacity:1" sodipodi:cx="38.509369" sodipodi:cy="47.36993" sodipodi:rx="8.5197716" id="svg2.path2160" d="M 47.02914 47.36993 A 8.5197716 9.2013531 0 1 1  29.989597,47.36993 A 8.5197716 9.2013531 0 1 1  47.02914 47.36993 z" sodipodi:ry="9.2013531" sodipodi:type="arc"/>
                  
            </a>
                
            <path style="fill:none" sodipodi:cx="43.962021" sodipodi:cy="48.392303" d="M 47.71072 48.392303 A 3.7486994 0 0 1 1  40.213321,48.392303 A 3.7486994 0 0 1 1  47.71072 48.392303 z" id="svg2.path3134" sodipodi:rx="3.7486994" sodipodi:ry="0" sodipodi:type="arc"/>
                
            <path style="fill:none;fill-rule:evenodd;stroke:#000000;stroke-width:1.24319649px;stroke-linecap:butt;stroke-linejoin:miter;stroke-opacity:1" d="M 50,61.33709 C 50,91.363211 50,92.247838 50,92.247838" id="svg2.path3136"/>
                
            <path style="fill:none;fill-rule:evenodd;stroke:#000000;stroke-width:1px;stroke-linecap:butt;stroke-linejoin:miter;stroke-opacity:1" d="M 69.760668,72.362183 C 69.760668,72.362183 69.760668,72.362183 50.239332,72.362183 C 30.239332,72.362183 30.239332,72.362183 30.239332,72.362183 L 30.239332,72.362183" id="svg2.path3138"/>
                
            <path style="fill:none;fill-rule:evenodd;stroke:#000000;stroke-width:1px;stroke-linecap:butt;stroke-linejoin:miter;stroke-opacity:1" d="M 30,111.45687 C 30,111.45687 30,111.45687 50,92.013532 C 70,111.45687 70,111.45687 70,111.45687" id="svg2.path3140"/>
              
          </g>
          
        </svg>
      </g>
    </g>
    <g font-size="13px" stroke-linecap="butt" transform="matrix(1,0,0,1,-67,-53)" text-rendering="geometricPrecision" font-family="sans-serif" shape-rendering="geometricPrecision" stroke-miterlimit="1.45">
      <text x="266.732" xml:space="preserve" y="517.522" clip-path="url(#clipPath2)" stroke="none">Букмекер</text>
    </g>
    <g text-rendering="geometricPrecision" shape-rendering="geometricPrecision" transform="matrix(0.8109,0,0,0.8859,213.4772,39.525)">
      <g clip-path="url(#clipPath5)">
        <svg xmlns:svg="http://www.w3.org/2000/svg" xmlns:sodipodi="http://sodipodi.sourceforge.net/DTD/sodipodi-0.dtd" xmlns:inkscape="http://www.inkscape.org/namespaces/inkscape" xmlns:dc="http://purl.org/dc/elements/1.1/" xmlns:cc="http://web.resource.org/cc/" xmlns:rdf="http://www.w3.org/1999/02/22-rdf-syntax-ns#" opacity="1" writing-mode="lr-tb" stop-color="rgb(0, 0, 0)" shape-rendering="auto" glyph-orientation-horizontal="0deg" color-profile="auto" lighting-color="rgb(255, 255, 255)" color="rgb(0, 0, 0)" font-weight="400" alignment-baseline="auto" font-style="normal" version="1.0" color-interpolation-filters="linearrgb" text-anchor="start" stroke-linecap="butt" color-interpolation="srgb" font-variant="normal" word-spacing="normal" fill-opacity="1" text-rendering="auto" clip-path="none" text-decoration="none" letter-spacing="normal" glyph-orientation-vertical="auto" display="inline" font-size-adjust="none" overflow="hidden" fill="rgb(0, 0, 0)" font-stretch="normal" stroke-dasharray="none" inkscape:version="0.45.1" id="svg3.svg2" stroke-miterlimit="4" stop-opacity="1" color-rendering="auto" font-size="12" sodipodi:docbase="C:\Daten\alberts\projects\yfx" pointer-events="visiblepainted" mask="none" direction="ltr" baseline-shift="baseline" sodipodi:docname="uml_actor.svg" enable-background="accumulate" fill-rule="nonzero" image-rendering="auto" stroke-dashoffset="0" inkscape:output_extension="org.inkscape.output.svg.inkscape" marker-end="none" width="41" clip="auto" cursor="auto" stroke="none" filter="none" visibility="visible" kerning="auto" stroke-width="1" font-family="&quot;Arial&quot;,&quot;Helvetica&quot;,sans-serif" flood-opacity="1" clip-rule="nonzero" src="none" height="68.997391" unicode-bidi="normal" sodipodi:version="0.32" stroke-linejoin="miter" stroke-opacity="1" flood-color="rgb(0, 0, 0)" dominant-baseline="auto" marker-start="none" marker-mid="none">
            
          <defs id="svg3.defs4"/>
            
  
          <metadata id="svg3.metadata7">
    
  </metadata>
            
          <g inkscape:groupmode="layer" id="svg3.layer1" transform="translate(-29.5,-42.959476)" inkscape:label="Ebene 1">
                
            <a id="svg3.a3142" transform="matrix(1.0873906,0,0,1,-4.4741999,0)">
                    
              <path transform="translate(11.586889,5.2908993)" style="fill:none;fill-rule:evenodd;stroke:#000000;stroke-width:1px;stroke-linecap:butt;stroke-linejoin:miter;stroke-opacity:1" sodipodi:cx="38.509369" sodipodi:cy="47.36993" sodipodi:rx="8.5197716" id="svg3.path2160" d="M 47.02914 47.36993 A 8.5197716 9.2013531 0 1 1  29.989597,47.36993 A 8.5197716 9.2013531 0 1 1  47.02914 47.36993 z" sodipodi:ry="9.2013531" sodipodi:type="arc"/>
                  
            </a>
                
            <path style="fill:none" sodipodi:cx="43.962021" sodipodi:cy="48.392303" d="M 47.71072 48.392303 A 3.7486994 0 0 1 1  40.213321,48.392303 A 3.7486994 0 0 1 1  47.71072 48.392303 z" id="svg3.path3134" sodipodi:rx="3.7486994" sodipodi:ry="0" sodipodi:type="arc"/>
                
            <path style="fill:none;fill-rule:evenodd;stroke:#000000;stroke-width:1.24319649px;stroke-linecap:butt;stroke-linejoin:miter;stroke-opacity:1" d="M 50,61.33709 C 50,91.363211 50,92.247838 50,92.247838" id="svg3.path3136"/>
                
            <path style="fill:none;fill-rule:evenodd;stroke:#000000;stroke-width:1px;stroke-linecap:butt;stroke-linejoin:miter;stroke-opacity:1" d="M 69.760668,72.362183 C 69.760668,72.362183 69.760668,72.362183 50.239332,72.362183 C 30.239332,72.362183 30.239332,72.362183 30.239332,72.362183 L 30.239332,72.362183" id="svg3.path3138"/>
                
            <path style="fill:none;fill-rule:evenodd;stroke:#000000;stroke-width:1px;stroke-linecap:butt;stroke-linejoin:miter;stroke-opacity:1" d="M 30,111.45687 C 30,111.45687 30,111.45687 50,92.013532 C 70,111.45687 70,111.45687 70,111.45687" id="svg3.path3140"/>
              
          </g>
          
        </svg>
      </g>
    </g>
    <g font-size="13px" stroke-linecap="butt" transform="matrix(1,0,0,1,-67,-53)" text-rendering="geometricPrecision" font-family="sans-serif" shape-rendering="geometricPrecision" stroke-miterlimit="1.45">
      <text x="233.998" xml:space="preserve" y="173.422" clip-path="url(#clipPath2)" stroke="none">Неавторизованный</text>
    </g>
    <g font-size="13px" stroke-linecap="butt" transform="matrix(1,0,0,1,-67,-53)" text-rendering="geometricPrecision" font-family="sans-serif" shape-rendering="geometricPrecision" stroke-miterlimit="1.45">
      <text x="252.6075" xml:space="preserve" y="191.128" clip-path="url(#clipPath2)" stroke="none">пользователь</text>
    </g>
    <g text-rendering="geometricPrecision" shape-rendering="geometricPrecision" transform="matrix(0.8109,0,0,0.8859,615.7117,318.925)">
      <g clip-path="url(#clipPath6)">
        <svg xmlns:svg="http://www.w3.org/2000/svg" xmlns:sodipodi="http://sodipodi.sourceforge.net/DTD/sodipodi-0.dtd" xmlns:inkscape="http://www.inkscape.org/namespaces/inkscape" xmlns:dc="http://purl.org/dc/elements/1.1/" xmlns:cc="http://web.resource.org/cc/" xmlns:rdf="http://www.w3.org/1999/02/22-rdf-syntax-ns#" opacity="1" writing-mode="lr-tb" stop-color="rgb(0, 0, 0)" shape-rendering="auto" glyph-orientation-horizontal="0deg" color-profile="auto" lighting-color="rgb(255, 255, 255)" color="rgb(0, 0, 0)" font-weight="400" alignment-baseline="auto" font-style="normal" version="1.0" color-interpolation-filters="linearrgb" text-anchor="start" stroke-linecap="butt" color-interpolation="srgb" font-variant="normal" word-spacing="normal" fill-opacity="1" text-rendering="auto" clip-path="none" text-decoration="none" letter-spacing="normal" glyph-orientation-vertical="auto" display="inline" font-size-adjust="none" overflow="hidden" fill="rgb(0, 0, 0)" font-stretch="normal" stroke-dasharray="none" inkscape:version="0.45.1" id="svg4.svg2" stroke-miterlimit="4" stop-opacity="1" color-rendering="auto" font-size="12" sodipodi:docbase="C:\Daten\alberts\projects\yfx" pointer-events="visiblepainted" mask="none" direction="ltr" baseline-shift="baseline" sodipodi:docname="uml_actor.svg" enable-background="accumulate" fill-rule="nonzero" image-rendering="auto" stroke-dashoffset="0" inkscape:output_extension="org.inkscape.output.svg.inkscape" marker-end="none" width="41" clip="auto" cursor="auto" stroke="none" filter="none" visibility="visible" kerning="auto" stroke-width="1" font-family="&quot;Arial&quot;,&quot;Helvetica&quot;,sans-serif" flood-opacity="1" clip-rule="nonzero" src="none" height="68.997391" unicode-bidi="normal" sodipodi:version="0.32" stroke-linejoin="miter" stroke-opacity="1" flood-color="rgb(0, 0, 0)" dominant-baseline="auto" marker-start="none" marker-mid="none">
            
          <defs id="svg4.defs4"/>
            
  
          <metadata id="svg4.metadata7">
    
  </metadata>
            
          <g inkscape:groupmode="layer" id="svg4.layer1" transform="translate(-29.5,-42.959476)" inkscape:label="Ebene 1">
                
            <a id="svg4.a3142" transform="matrix(1.0873906,0,0,1,-4.4741999,0)">
                    
              <path transform="translate(11.586889,5.2908993)" style="fill:none;fill-rule:evenodd;stroke:#000000;stroke-width:1px;stroke-linecap:butt;stroke-linejoin:miter;stroke-opacity:1" sodipodi:cx="38.509369" sodipodi:cy="47.36993" sodipodi:rx="8.5197716" id="svg4.path2160" d="M 47.02914 47.36993 A 8.5197716 9.2013531 0 1 1  29.989597,47.36993 A 8.5197716 9.2013531 0 1 1  47.02914 47.36993 z" sodipodi:ry="9.2013531" sodipodi:type="arc"/>
                  
            </a>
                
            <path style="fill:none" sodipodi:cx="43.962021" sodipodi:cy="48.392303" d="M 47.71072 48.392303 A 3.7486994 0 0 1 1  40.213321,48.392303 A 3.7486994 0 0 1 1  47.71072 48.392303 z" id="svg4.path3134" sodipodi:rx="3.7486994" sodipodi:ry="0" sodipodi:type="arc"/>
                
            <path style="fill:none;fill-rule:evenodd;stroke:#000000;stroke-width:1.24319649px;stroke-linecap:butt;stroke-linejoin:miter;stroke-opacity:1" d="M 50,61.33709 C 50,91.363211 50,92.247838 50,92.247838" id="svg4.path3136"/>
                
            <path style="fill:none;fill-rule:evenodd;stroke:#000000;stroke-width:1px;stroke-linecap:butt;stroke-linejoin:miter;stroke-opacity:1" d="M 69.760668,72.362183 C 69.760668,72.362183 69.760668,72.362183 50.239332,72.362183 C 30.239332,72.362183 30.239332,72.362183 30.239332,72.362183 L 30.239332,72.362183" id="svg4.path3138"/>
                
            <path style="fill:none;fill-rule:evenodd;stroke:#000000;stroke-width:1px;stroke-linecap:butt;stroke-linejoin:miter;stroke-opacity:1" d="M 30,111.45687 C 30,111.45687 30,111.45687 50,92.013532 C 70,111.45687 70,111.45687 70,111.45687" id="svg4.path3140"/>
              
          </g>
          
        </svg>
      </g>
    </g>
    <g font-size="13px" stroke-linecap="butt" transform="matrix(1,0,0,1,-67,-53)" text-rendering="geometricPrecision" font-family="sans-serif" shape-rendering="geometricPrecision" stroke-miterlimit="1.45">
      <text x="649.174" xml:space="preserve" y="452.822" clip-path="url(#clipPath2)" stroke="none">Администратор</text>
    </g>
    <g fill="white" text-rendering="geometricPrecision" shape-rendering="geometricPrecision" transform="matrix(1,0,0,1,-67,-53)" stroke="white">
      <ellipse rx="55" ry="25" clip-path="url(#clipPath2)" cx="137.7172" cy="123.025" stroke="none"/>
    </g>
    <g font-size="13px" stroke-linecap="butt" transform="matrix(1,0,0,1,-67,-53)" text-rendering="geometricPrecision" font-family="sans-serif" shape-rendering="geometricPrecision" stroke-miterlimit="1.45">
      <text x="110.9827" xml:space="preserve" y="119.216" clip-path="url(#clipPath2)" stroke="none">Войти в </text>
      <text x="112.3737" xml:space="preserve" y="136.922" clip-path="url(#clipPath2)" stroke="none">систему</text>
      <ellipse rx="55" fill="none" ry="25" clip-path="url(#clipPath2)" cx="137.7172" cy="123.025"/>
    </g>
    <g fill="white" text-rendering="geometricPrecision" shape-rendering="geometricPrecision" transform="matrix(1,0,0,1,-67,-53)" stroke="white">
      <ellipse rx="55" ry="25" clip-path="url(#clipPath2)" cx="148.7172" cy="260.925" stroke="none"/>
    </g>
    <g font-size="13px" stroke-linecap="butt" transform="matrix(1,0,0,1,-67,-53)" text-rendering="geometricPrecision" font-family="sans-serif" shape-rendering="geometricPrecision" stroke-miterlimit="1.45">
      <text x="118.9277" xml:space="preserve" y="257.116" clip-path="url(#clipPath2)" stroke="none">Выйти из</text>
      <text x="121.6317" xml:space="preserve" y="274.822" clip-path="url(#clipPath2)" stroke="none">системы</text>
      <ellipse rx="55" fill="none" ry="25" clip-path="url(#clipPath2)" cx="148.7172" cy="260.925"/>
    </g>
    <g fill="white" text-rendering="geometricPrecision" shape-rendering="geometricPrecision" transform="matrix(1,0,0,1,-67,-53)" stroke="white">
      <ellipse rx="55" ry="25" clip-path="url(#clipPath2)" cx="510.7172" cy="93.625" stroke="none"/>
    </g>
    <g font-size="13px" stroke-linecap="butt" transform="matrix(1,0,0,1,-67,-53)" text-rendering="geometricPrecision" font-family="sans-serif" shape-rendering="geometricPrecision" stroke-miterlimit="1.45">
      <text x="479.8747" xml:space="preserve" y="89.816" clip-path="url(#clipPath2)" stroke="none">Добавить</text>
      <text x="486.3097" xml:space="preserve" y="107.522" clip-path="url(#clipPath2)" stroke="none">партию</text>
      <ellipse rx="55" fill="none" ry="25" clip-path="url(#clipPath2)" cx="510.7172" cy="93.625"/>
    </g>
    <g fill="white" text-rendering="geometricPrecision" shape-rendering="geometricPrecision" transform="matrix(1,0,0,1,-67,-53)" stroke="white">
      <ellipse rx="55" ry="25" clip-path="url(#clipPath2)" cx="510.7172" cy="151.225" stroke="none"/>
    </g>
    <g font-size="13px" stroke-linecap="butt" transform="matrix(1,0,0,1,-67,-53)" text-rendering="geometricPrecision" font-family="sans-serif" shape-rendering="geometricPrecision" stroke-miterlimit="1.45">
      <text x="479.8747" xml:space="preserve" y="147.416" clip-path="url(#clipPath2)" stroke="none">Добавить</text>
      <text x="468.0382" xml:space="preserve" y="165.122" clip-path="url(#clipPath2)" stroke="none">ход в партию</text>
      <ellipse rx="55" fill="none" ry="25" clip-path="url(#clipPath2)" cx="510.7172" cy="151.225"/>
    </g>
    <g fill="white" text-rendering="geometricPrecision" shape-rendering="geometricPrecision" transform="matrix(1,0,0,1,-67,-53)" stroke="white">
      <ellipse rx="55" ry="25" clip-path="url(#clipPath2)" cx="510.7172" cy="208.825" stroke="none"/>
    </g>
    <g font-size="13px" stroke-linecap="butt" transform="matrix(1,0,0,1,-67,-53)" text-rendering="geometricPrecision" font-family="sans-serif" shape-rendering="geometricPrecision" stroke-miterlimit="1.45">
      <text x="484.3467" xml:space="preserve" y="205.016" clip-path="url(#clipPath2)" stroke="none">Удалить</text>
      <text x="465.6722" xml:space="preserve" y="222.722" clip-path="url(#clipPath2)" stroke="none">ход из партии</text>
      <ellipse rx="55" fill="none" ry="25" clip-path="url(#clipPath2)" cx="510.7172" cy="208.825"/>
    </g>
    <g fill="white" text-rendering="geometricPrecision" shape-rendering="geometricPrecision" transform="matrix(1,0,0,1,-67,-53)" stroke="white">
      <ellipse rx="55" ry="25" clip-path="url(#clipPath2)" cx="510.7172" cy="266.425" stroke="none"/>
    </g>
    <g font-size="13px" stroke-linecap="butt" transform="matrix(1,0,0,1,-67,-53)" text-rendering="geometricPrecision" font-family="sans-serif" shape-rendering="geometricPrecision" stroke-miterlimit="1.45">
      <text x="474.8697" xml:space="preserve" y="262.616" clip-path="url(#clipPath2)" stroke="none">Завершить</text>
      <text x="486.3097" xml:space="preserve" y="280.322" clip-path="url(#clipPath2)" stroke="none">партию</text>
      <ellipse rx="55" fill="none" ry="25" clip-path="url(#clipPath2)" cx="510.7172" cy="266.425"/>
    </g>
    <g fill="white" text-rendering="geometricPrecision" shape-rendering="geometricPrecision" transform="matrix(1,0,0,1,-67,-53)" stroke="white">
      <ellipse rx="55" ry="25" clip-path="url(#clipPath2)" cx="148.7172" cy="425.625" stroke="none"/>
    </g>
    <g font-size="13px" stroke-linecap="butt" transform="matrix(1,0,0,1,-67,-53)" text-rendering="geometricPrecision" font-family="sans-serif" shape-rendering="geometricPrecision" stroke-miterlimit="1.45">
      <text x="117.8747" xml:space="preserve" y="421.816" clip-path="url(#clipPath2)" stroke="none">Добавить</text>
      <text x="128.3592" xml:space="preserve" y="439.522" clip-path="url(#clipPath2)" stroke="none">ставку</text>
      <ellipse rx="55" fill="none" ry="25" clip-path="url(#clipPath2)" cx="148.7172" cy="425.625"/>
    </g>
    <g fill="white" text-rendering="geometricPrecision" shape-rendering="geometricPrecision" transform="matrix(1,0,0,1,-67,-53)" stroke="white">
      <ellipse rx="55" ry="25" clip-path="url(#clipPath2)" cx="510.7172" cy="439.225" stroke="none"/>
    </g>
    <g font-size="13px" stroke-linecap="butt" transform="matrix(1,0,0,1,-67,-53)" text-rendering="geometricPrecision" font-family="sans-serif" shape-rendering="geometricPrecision" stroke-miterlimit="1.45">
      <text x="484.3467" xml:space="preserve" y="435.416" clip-path="url(#clipPath2)" stroke="none">Удалить</text>
      <text x="490.3592" xml:space="preserve" y="453.122" clip-path="url(#clipPath2)" stroke="none">ставку</text>
      <ellipse rx="55" fill="none" ry="25" clip-path="url(#clipPath2)" cx="510.7172" cy="439.225"/>
    </g>
    <g fill="white" text-rendering="geometricPrecision" shape-rendering="geometricPrecision" transform="matrix(1,0,0,1,-67,-53)" stroke="white">
      <ellipse rx="55" ry="25" clip-path="url(#clipPath2)" cx="865.5861" cy="496.825" stroke="none"/>
    </g>
    <g font-size="13px" stroke-linecap="butt" transform="matrix(1,0,0,1,-67,-53)" text-rendering="geometricPrecision" font-family="sans-serif" shape-rendering="geometricPrecision" stroke-miterlimit="1.45">
      <text x="835.7966" xml:space="preserve" y="493.016" clip-path="url(#clipPath2)" stroke="none">Выйти из</text>
      <text x="838.5006" xml:space="preserve" y="510.722" clip-path="url(#clipPath2)" stroke="none">системы</text>
      <ellipse rx="55" fill="none" ry="25" clip-path="url(#clipPath2)" cx="865.5861" cy="496.825"/>
    </g>
    <g fill="white" text-rendering="geometricPrecision" shape-rendering="geometricPrecision" transform="matrix(1,0,0,1,-67,-53)" stroke="white">
      <ellipse rx="55" ry="25" clip-path="url(#clipPath2)" cx="510.7172" cy="324.025" stroke="none"/>
    </g>
    <g font-size="13px" stroke-linecap="butt" transform="matrix(1,0,0,1,-67,-53)" text-rendering="geometricPrecision" font-family="sans-serif" shape-rendering="geometricPrecision" stroke-miterlimit="1.45">
      <text x="484.3467" xml:space="preserve" y="320.216" clip-path="url(#clipPath2)" stroke="none">Удалить</text>
      <text x="486.3097" xml:space="preserve" y="337.922" clip-path="url(#clipPath2)" stroke="none">партию</text>
      <ellipse rx="55" fill="none" ry="25" clip-path="url(#clipPath2)" cx="510.7172" cy="324.025"/>
    </g>
    <g fill="white" text-rendering="geometricPrecision" shape-rendering="geometricPrecision" transform="matrix(1,0,0,1,-67,-53)" stroke="white">
      <ellipse rx="55" ry="25" clip-path="url(#clipPath2)" cx="865.5861" cy="439.225" stroke="none"/>
    </g>
    <g font-size="13px" stroke-linecap="butt" transform="matrix(1,0,0,1,-67,-53)" text-rendering="geometricPrecision" font-family="sans-serif" shape-rendering="geometricPrecision" stroke-miterlimit="1.45">
      <text x="839.2156" xml:space="preserve" y="435.416" clip-path="url(#clipPath2)" stroke="none">Удалить</text>
      <text x="821.321" xml:space="preserve" y="453.122" clip-path="url(#clipPath2)" stroke="none">пользователя</text>
      <ellipse rx="55" fill="none" ry="25" clip-path="url(#clipPath2)" cx="865.5861" cy="439.225"/>
    </g>
    <g fill="white" text-rendering="geometricPrecision" shape-rendering="geometricPrecision" transform="matrix(1,0,0,1,-67,-53)" stroke="white">
      <ellipse rx="55" ry="25" clip-path="url(#clipPath2)" cx="865.5861" cy="381.625" stroke="none"/>
    </g>
    <g font-size="13px" stroke-linecap="butt" transform="matrix(1,0,0,1,-67,-53)" text-rendering="geometricPrecision" font-family="sans-serif" shape-rendering="geometricPrecision" stroke-miterlimit="1.45">
      <text x="834.7436" xml:space="preserve" y="377.816" clip-path="url(#clipPath2)" stroke="none">Добавить</text>
      <text x="821.321" xml:space="preserve" y="395.522" clip-path="url(#clipPath2)" stroke="none">пользователя</text>
      <ellipse rx="55" fill="none" ry="25" clip-path="url(#clipPath2)" cx="865.5861" cy="381.625"/>
    </g>
    <g fill="white" text-rendering="geometricPrecision" shape-rendering="geometricPrecision" transform="matrix(1,0,0,1,-67,-53)" stroke="white">
      <ellipse rx="55" ry="25" clip-path="url(#clipPath2)" cx="865.5861" cy="324.025" stroke="none"/>
    </g>
    <g font-size="13px" stroke-linecap="butt" transform="matrix(1,0,0,1,-67,-53)" text-rendering="geometricPrecision" font-family="sans-serif" shape-rendering="geometricPrecision" stroke-miterlimit="1.45">
      <text x="839.2156" xml:space="preserve" y="320.216" clip-path="url(#clipPath2)" stroke="none">Удалить</text>
      <text x="843.5771" xml:space="preserve" y="337.922" clip-path="url(#clipPath2)" stroke="none">игрока</text>
      <ellipse rx="55" fill="none" ry="25" clip-path="url(#clipPath2)" cx="865.5861" cy="324.025"/>
    </g>
    <g fill="white" text-rendering="geometricPrecision" shape-rendering="geometricPrecision" transform="matrix(1,0,0,1,-67,-53)" stroke="white">
      <ellipse rx="55" ry="25" clip-path="url(#clipPath2)" cx="865.5861" cy="266.425" stroke="none"/>
    </g>
    <g font-size="13px" stroke-linecap="butt" transform="matrix(1,0,0,1,-67,-53)" text-rendering="geometricPrecision" font-family="sans-serif" shape-rendering="geometricPrecision" stroke-miterlimit="1.45">
      <text x="834.7436" xml:space="preserve" y="262.616" clip-path="url(#clipPath2)" stroke="none">Добавить</text>
      <text x="843.5771" xml:space="preserve" y="280.322" clip-path="url(#clipPath2)" stroke="none">игрока</text>
      <ellipse rx="55" fill="none" ry="25" clip-path="url(#clipPath2)" cx="865.5861" cy="266.425"/>
    </g>
    <g fill="white" text-rendering="geometricPrecision" shape-rendering="geometricPrecision" transform="matrix(1,0,0,1,-67,-53)" stroke="white">
      <ellipse rx="55" ry="25" clip-path="url(#clipPath2)" cx="510.7172" cy="381.625" stroke="none"/>
    </g>
    <g font-size="13px" stroke-linecap="butt" transform="matrix(1,0,0,1,-67,-53)" text-rendering="geometricPrecision" font-family="sans-serif" shape-rendering="geometricPrecision" stroke-miterlimit="1.45">
      <text x="472.4192" xml:space="preserve" y="377.816" clip-path="url(#clipPath2)" stroke="none">Посмотреть</text>
      <text x="486.3097" xml:space="preserve" y="395.522" clip-path="url(#clipPath2)" stroke="none">партию</text>
      <ellipse rx="55" fill="none" ry="25" clip-path="url(#clipPath2)" cx="510.7172" cy="381.625"/>
    </g>
    <g fill="white" text-rendering="geometricPrecision" shape-rendering="geometricPrecision" transform="matrix(1,0,0,1,-67,-53)" stroke="white">
      <ellipse rx="55" ry="25" clip-path="url(#clipPath2)" cx="148.7172" cy="505.625" stroke="none"/>
    </g>
    <g font-size="13px" stroke-linecap="butt" transform="matrix(1,0,0,1,-67,-53)" text-rendering="geometricPrecision" font-family="sans-serif" shape-rendering="geometricPrecision" stroke-miterlimit="1.45">
      <text x="116.7502" xml:space="preserve" y="501.816" clip-path="url(#clipPath2)" stroke="none">Изменить</text>
      <text x="106.4152" xml:space="preserve" y="519.522" clip-path="url(#clipPath2)" stroke="none">статус ставки</text>
      <ellipse rx="55" fill="none" ry="25" clip-path="url(#clipPath2)" cx="148.7172" cy="505.625"/>
    </g>
    <g fill="white" text-rendering="geometricPrecision" shape-rendering="geometricPrecision" transform="matrix(1,0,0,1,-67,-53)" stroke="white">
      <ellipse rx="55" ry="25" clip-path="url(#clipPath2)" cx="630.5861" cy="266.425" stroke="none"/>
    </g>
    <g font-size="13px" stroke-linecap="butt" transform="matrix(1,0,0,1,-67,-53)" text-rendering="geometricPrecision" font-family="sans-serif" shape-rendering="geometricPrecision" stroke-miterlimit="1.45">
      <text x="604.2156" xml:space="preserve" y="262.616" clip-path="url(#clipPath2)" stroke="none">Удалить</text>
      <text x="611.0796" xml:space="preserve" y="280.322" clip-path="url(#clipPath2)" stroke="none">судью</text>
      <ellipse rx="55" fill="none" ry="25" clip-path="url(#clipPath2)" cx="630.5861" cy="266.425"/>
    </g>
    <g fill="white" text-rendering="geometricPrecision" shape-rendering="geometricPrecision" transform="matrix(1,0,0,1,-67,-53)" stroke="white">
      <ellipse rx="55" ry="25" clip-path="url(#clipPath2)" cx="748.0861" cy="266.425" stroke="none"/>
    </g>
    <g font-size="13px" stroke-linecap="butt" transform="matrix(1,0,0,1,-67,-53)" text-rendering="geometricPrecision" font-family="sans-serif" shape-rendering="geometricPrecision" stroke-miterlimit="1.45">
      <text x="717.2436" xml:space="preserve" y="262.616" clip-path="url(#clipPath2)" stroke="none">Добавить</text>
      <text x="728.5796" xml:space="preserve" y="280.322" clip-path="url(#clipPath2)" stroke="none">судью</text>
      <ellipse rx="55" fill="none" ry="25" clip-path="url(#clipPath2)" cx="748.0861" cy="266.425"/>
      <path fill="none" d="M280.5625 123.025 L192.7172 123.025" clip-path="url(#clipPath2)"/>
      <path fill="none" d="M203.5353 262.9569 L280.6074 265.8137" clip-path="url(#clipPath2)"/>
      <path fill="none" d="M165.8159 284.6862 L280.6094 444.2088" clip-path="url(#clipPath2)"/>
      <path fill="none" d="M313.6063 253.0727 L483.7742 115.4198" clip-path="url(#clipPath2)"/>
      <path fill="none" d="M313.6063 257.5234 L475.2709 170.3406" clip-path="url(#clipPath2)"/>
      <path fill="none" d="M313.6063 261.9742 L463.414 221.5799" clip-path="url(#clipPath2)"/>
      <path fill="none" d="M313.6063 266.425 L455.7173 266.425" clip-path="url(#clipPath2)"/>
      <path fill="none" d="M280.6171 462.515 L195.5602 438.7261" clip-path="url(#clipPath2)"/>
      <path fill="none" d="M313.6063 464.9691 L457.8561 446.1291" clip-path="url(#clipPath2)"/>
      <path fill="none" d="M682.8029 405.6504 L561.2582 429.3643" clip-path="url(#clipPath2)"/>
      <path fill="none" d="M715.8541 411.8051 L831.2143 477.3082" clip-path="url(#clipPath2)"/>
      <path fill="none" d="M682.8029 395.5535 L551.3056 340.8958" clip-path="url(#clipPath2)"/>
      <path fill="none" d="M313.6063 270.8758 L463.414 311.2701" clip-path="url(#clipPath2)"/>
      <path fill="none" d="M715.8541 406.0816 L816.1376 428.2795" clip-path="url(#clipPath2)"/>
      <path fill="none" d="M715.8541 400.3582 L812.5582 388.2594" clip-path="url(#clipPath2)"/>
      <path fill="none" d="M715.8541 394.6348 L827.4168 342.0247" clip-path="url(#clipPath2)"/>
      <path fill="none" d="M715.8338 388.9279 L838.8721 288.278" clip-path="url(#clipPath2)"/>
      <path fill="none" d="M313.6063 275.3266 L475.2709 362.5094" clip-path="url(#clipPath2)"/>
      <path fill="none" d="M313.6063 460.5184 L469.4392 398.1465" clip-path="url(#clipPath2)"/>
      <path fill="none" d="M564.1667 387.5192 L682.8015 400.6018" clip-path="url(#clipPath2)"/>
      <path fill="none" d="M280.6171 471.4017 L196.4831 493.2315" clip-path="url(#clipPath2)"/>
      <path fill="none" d="M683.9097 371.9113 L642.9027 290.7901" clip-path="url(#clipPath2)"/>
      <path fill="none" d="M710.2726 371.9113 L739.2411 291.0996" clip-path="url(#clipPath2)"/>
    </g>
  </g>
</svg>
